<svg width="159" height="76" viewBox="0 0 159 76" fill="none" xmlns="http://www.w3.org/2000/svg">
<path d="M110.015 26.1738C94.8929 15.6305 74.5793 8.70762 56.2782 6.98586C45.9002 6.00939 35.3786 7.00615 25.1284 8.75221C19.8205 9.65636 14.6026 10.7975 9.41203 12.2227C7.90491 12.6365 2.0178 15.5838 0.863927 14.451C-3.01776 10.64 19.7399 4.41029 22.2381 3.9151C32.8015 1.82163 43.6242 0.220748 54.4109 0.793633C72.5052 1.75474 92.326 6.42251 108.028 15.65C117.171 21.0229 126.39 26.312 134.248 33.655C137.552 36.743 140.579 40.1414 143.247 43.7958C145.134 46.3814 147.002 49.0739 148.547 51.882C149.692 53.9612 150.095 57.2183 151.514 58.9923C153.513 55.4831 152.395 50.0612 154.193 46.2739C156.332 41.7706 158.548 45.2872 158.772 48.5924C159.129 53.8527 158.603 59.126 158.332 64.3775C158.101 68.8528 158.887 74.6293 153.478 75.5203C148.729 76.3027 143.538 75.2408 138.79 75.0108C135.615 74.8571 128.628 76.1628 126.562 72.9815C120.107 63.0396 145.248 69.3303 147.151 69.0078C146.56 67.2297 145.032 65.6238 144.133 63.9458C142.834 61.519 141.896 58.9319 140.584 56.5088C138.111 51.9399 135.053 47.5028 131.725 43.5158C125.953 36.6013 118.03 30.2502 110.015 26.1738C111.174 26.7632 104.544 22.3595 110.015 26.1738Z" fill="white"/>
</svg>
