<svg width="169" height="95" viewBox="0 0 169 95" fill="none" xmlns="http://www.w3.org/2000/svg">
<path d="M167.368 19.9905C167.752 21.5965 169.266 24.8754 167.925 26.2341C166.113 28.0687 164.661 25.7164 163.719 24.2144C161.866 21.2608 161.087 15.783 158.488 13.6385C150.982 39.4102 135.203 61.1233 112.654 75.7495C90.2251 90.297 60.6018 99.1689 34.194 90.8063C21.2688 86.7132 9.53186 79.1207 2.86722 66.9122C2.29531 65.8646 -0.771392 60.817 1.63603 60.4764C2.89104 60.2988 6.76543 66.818 7.63822 67.874C12.1749 73.3638 17.407 77.7531 23.6491 81.144C44.9184 92.6981 71.6654 89.6494 92.9279 80.1475C107.013 73.853 119.995 64.2552 130.369 52.7461C135.724 46.8056 140.623 40.2246 144.381 33.1354C147.551 27.156 152.996 17.4435 152.719 10.4526C147.082 12.7348 143.482 20.6143 138.193 23.7257C135.391 25.3742 131.573 24.7211 132.851 20.7847C133.887 17.5933 138.96 14.5172 141.386 12.3573C144.094 9.94718 146.863 7.63869 149.784 5.49312C151.926 3.91925 155.866 -0.351162 158.645 0.0619038C163.559 0.792292 166.248 15.9056 167.368 19.9905C166.901 18.2862 167.77 21.6695 167.368 19.9905Z" fill="white"/>
</svg>
