<svg width="33" height="33" viewBox="0 0 33 33" fill="none" xmlns="http://www.w3.org/2000/svg">
<path d="M16.6866 30.4808C8.79406 30.4808 2.37891 24.0656 2.37891 16.1731C2.37891 8.28063 8.79406 1.86548 16.6866 1.86548C24.5791 1.86548 30.9942 8.28063 30.9942 16.1731C30.9942 24.0656 24.5791 30.4808 16.6866 30.4808ZM16.6866 3.8619C9.89875 3.8619 4.37532 9.38532 4.37532 16.1731C4.37532 22.961 9.89875 28.4844 16.6866 28.4844C23.4744 28.4844 28.9978 22.961 28.9978 16.1731C28.9978 9.38532 23.4744 3.8619 16.6866 3.8619Z" fill="#979eaa"/>
<path d="M12.9187 20.9381C12.6658 20.9381 12.413 20.8449 12.2133 20.6453C11.8273 20.2593 11.8273 19.6205 12.2133 19.2345L19.7465 11.7013C20.1324 11.3154 20.7713 11.3154 21.1573 11.7013C21.5432 12.0873 21.5432 12.7262 21.1573 13.1121L13.6241 20.6453C13.4378 20.8449 13.1716 20.9381 12.9187 20.9381Z" fill="#979eaa"/>
<path d="M20.4519 20.9381C20.199 20.9381 19.9461 20.8449 19.7465 20.6453L12.2133 13.1121C11.8273 12.7262 11.8273 12.0873 12.2133 11.7013C12.5993 11.3154 13.2381 11.3154 13.6241 11.7013L21.1573 19.2345C21.5432 19.6205 21.5432 20.2593 21.1573 20.6453C20.9576 20.8449 20.7047 20.9381 20.4519 20.9381Z" fill="#979eaa"/>
</svg>
