<svg width="43" height="44" viewBox="0 0 43 44" fill="white" xmlns="http://www.w3.org/2000/svg">
<path d="M13.3835 34.94H10.0124C4.85065 34.5713 2.5332 30.6034 2.5332 27.0744C2.5332 23.5454 4.85067 19.56 9.92468 19.2088C10.6445 19.1386 11.2766 19.7004 11.3292 20.4378C11.3819 21.1576 10.8377 21.7897 10.1003 21.8424C6.69424 22.0882 5.16677 24.6515 5.16677 27.0919C5.16677 29.5324 6.69424 32.0957 10.1003 32.3415H13.3835C14.1033 32.3415 14.7003 32.9385 14.7003 33.6583C14.7003 34.3782 14.1033 34.94 13.3835 34.94Z" fill="white"/>
<path d="M29.5539 34.9398C29.5188 34.9398 29.5013 34.9398 29.4662 34.9398C28.7463 34.9398 28.0792 34.3429 28.0792 33.623C28.0792 32.8681 28.641 32.3062 29.3784 32.3062C31.5379 32.3062 33.4692 31.5513 34.9791 30.1994C37.7181 27.8116 37.8936 24.3704 37.1562 21.9475C36.4188 19.5422 34.3646 16.7857 30.783 16.3468C30.2036 16.2766 29.7471 15.8377 29.6417 15.2583C28.9394 11.0446 26.6746 8.13008 23.2334 7.07666C19.6869 5.97056 15.5433 7.0591 12.9624 9.76289C10.4518 12.3789 9.87241 16.0484 11.3296 20.0865C11.5754 20.7712 11.2244 21.5262 10.5397 21.772C9.85493 22.0178 9.09994 21.6666 8.85414 20.9819C7.08087 16.0308 7.88851 11.2904 11.0664 7.95451C14.3144 4.54843 19.5289 3.19652 24.0059 4.56597C28.1143 5.83009 31.0112 9.21861 32.0646 13.9239C35.6463 14.7316 38.5257 17.4529 39.6669 21.2101C40.9134 25.301 39.7898 29.5147 36.7173 32.1833C34.7684 33.9391 32.2226 34.9398 29.5539 34.9398Z" fill="white"/>
<path d="M21.3551 40.1017C17.8261 40.1017 14.5254 38.2231 12.717 35.1857C12.5239 34.8872 12.3308 34.5361 12.1728 34.1498C11.5758 32.9033 11.2598 31.4812 11.2598 30.0064C11.2598 24.4407 15.7895 19.911 21.3551 19.911C26.9207 19.911 31.4505 24.4407 31.4505 30.0064C31.4505 31.4987 31.1345 32.9033 30.5024 34.2025C30.362 34.5361 30.1688 34.8872 29.9581 35.2208C28.1849 38.2231 24.8841 40.1017 21.3551 40.1017ZM21.3551 22.5446C17.2467 22.5446 13.8933 25.898 13.8933 30.0064C13.8933 31.0949 14.1216 32.1132 14.5605 33.0437C14.701 33.3422 14.8238 33.588 14.9643 33.8163C16.2986 36.0811 18.7391 37.4681 21.3375 37.4681C23.936 37.4681 26.3764 36.0811 27.6932 33.8514C27.8512 33.588 27.9918 33.3422 28.0971 33.0964C28.5711 32.1308 28.7993 31.1124 28.7993 30.0239C28.8169 25.898 25.4635 22.5446 21.3551 22.5446Z" fill="white"/>
<path d="M20.3553 33.0613C20.0217 33.0613 19.6882 32.9384 19.4248 32.675L17.6866 30.9368C17.1774 30.4277 17.1774 29.5849 17.6866 29.0758C18.1957 28.5666 19.0384 28.5666 19.5476 29.0758L20.3904 29.9185L23.1995 27.3201C23.7438 26.8285 24.569 26.8636 25.0606 27.3903C25.5522 27.917 25.5171 28.7598 24.9904 29.2514L21.2507 32.7101C20.9873 32.9384 20.6713 33.0613 20.3553 33.0613Z" fill="white"/>
</svg>
