<svg width="64" height="64" viewBox="0 0 64 64" fill="none" xmlns="http://www.w3.org/2000/svg">
<path fill-rule="evenodd" clip-rule="evenodd" d="M33.9338 19.3993L42.5047 10.8284C43.838 9.4951 44.5047 8.82843 45.3331 8.82843C46.1615 8.82843 46.8282 9.4951 48.1615 10.8284L53.1713 15.8382C54.5047 17.1716 55.1713 17.8382 55.1713 18.6667C55.1713 19.4951 54.5047 20.1618 53.1713 21.4951L44.6573 30.0091C40.2444 27.4118 36.5622 23.7568 33.9338 19.3993ZM32.4796 20.8535L11.5228 41.8103C11.0978 42.2354 10.8852 42.4479 10.7455 42.709C10.6058 42.9701 10.5468 43.2648 10.4289 43.8543L8.14686 55.2646C8.08034 55.5972 8.04708 55.7635 8.14168 55.8581C8.23629 55.9527 8.4026 55.9194 8.73521 55.8529L20.1455 53.5709C20.735 53.453 21.0297 53.394 21.2908 53.2543C21.5519 53.1146 21.7644 52.902 22.1895 52.477L43.1994 31.467C38.8372 28.8057 35.1693 25.1638 32.4796 20.8535Z" fill="#222222"/>
</svg>
