<svg width="363" height="470" viewBox="0 0 363 470" fill="none" xmlns="http://www.w3.org/2000/svg">
<g clip-path="url(#clip0_16_369)">
<rect width="363" height="470" fill="#FAFAFA"/>
<rect x="-35" y="214.064" width="300.296" height="9.80283" rx="2" transform="rotate(-60 -35 214.064)" fill="#FF7200" fill-opacity="0.1"/>
<rect x="-72" y="214.064" width="300.296" height="9.80283" rx="2" transform="rotate(-60 -72 214.064)" fill="#FF7200" fill-opacity="0.1"/>
<rect x="110.117" y="21.679" width="20.3961" height="8.41265" rx="1.09699" fill="#FF7200"/>
<rect x="110.117" y="53.6033" width="20.3961" height="2.95596" rx="1.09699" fill="#FF7200"/>
<rect x="100.067" y="39.3425" width="20.3961" height="4.43393" rx="1.09699" transform="rotate(-60 100.067 39.3425)" fill="#FF7200"/>
<rect x="126.67" y="54.4178" width="20.3961" height="4.43393" rx="1.09699" transform="rotate(-60 126.67 54.4178)" fill="#FF7200"/>
<rect x="133.321" y="43.5492" width="20.3961" height="8.41333" rx="1.09699" transform="rotate(-120 133.321 43.5492)" fill="#FF7200"/>
<rect x="110.265" y="56.7826" width="20.5291" height="2.95596" rx="1.09699" transform="rotate(-120 110.265 56.7826)" fill="#FF7200"/>
<path d="M152.413 29.8754V45.4087H160.101V49.3579H148.148V29.8754H152.413ZM164.278 34.1405C162.988 34.1405 161.961 33.1137 161.961 31.8236C161.961 30.5336 162.988 29.5331 164.278 29.5331C165.542 29.5331 166.569 30.5336 166.569 31.8236C166.569 33.1137 165.542 34.1405 164.278 34.1405ZM162.277 49.3579V36.194H166.332V49.3579H162.277ZM173.191 49.3579H169.373V29.5068H173.428V37.721C174.218 36.5363 175.955 35.7465 177.851 35.7465C181.537 35.7465 183.88 38.6162 183.88 42.9076C183.88 46.9884 181.273 49.7002 177.535 49.7002C175.692 49.7002 174.112 48.884 173.401 47.6729L173.191 49.3579ZM173.454 42.697C173.454 44.6716 174.77 45.988 176.666 45.988C178.588 45.988 179.799 44.6452 179.799 42.697C179.799 40.7487 178.588 39.406 176.666 39.406C174.77 39.406 173.454 40.7224 173.454 42.697ZM192.322 49.7002C188.346 49.7002 185.503 46.8041 185.503 42.7496C185.503 38.6425 188.267 35.7728 192.243 35.7728C196.376 35.7728 198.956 38.4845 198.956 42.776V43.8028L189.399 43.8554C189.636 45.593 190.611 46.4092 192.401 46.4092C193.928 46.4092 195.007 45.8563 195.297 44.9085H199.009C198.535 47.8309 195.929 49.7002 192.322 49.7002ZM192.269 39.0638C190.663 39.0638 189.768 39.7746 189.452 41.3543H194.928C194.928 39.9589 193.901 39.0638 192.269 39.0638ZM210.414 36.194V40.0116H209.124C206.807 40.0116 205.412 41.0383 205.412 43.6448V49.3579H201.357V36.2204H205.175L205.386 38.1686C205.938 36.8786 207.097 36.0097 208.861 36.0097C209.335 36.0097 209.861 36.0624 210.414 36.194ZM221.205 36.194H225.26V49.3579H221.442L221.179 47.8836C220.363 48.963 218.73 49.7002 217.151 49.7002C214.149 49.7002 212.306 47.6993 212.306 44.4609V36.194H216.361V42.9866C216.361 45.1455 217.098 46.0933 218.757 46.0933C220.494 46.0933 221.205 45.1981 221.205 43.0392V36.194ZM232.357 49.3579H228.302V36.194H232.093L232.357 37.5631C233.015 36.6416 234.305 35.7728 236.201 35.7728C238.175 35.7728 239.439 36.6943 240.202 38.0896C240.887 36.6943 242.44 35.7728 244.336 35.7728C247.732 35.7728 249.417 37.7474 249.417 40.7487V49.3579H245.363V41.8808C245.363 40.2222 244.494 39.4323 243.204 39.4323C242.045 39.4323 240.887 40.0642 240.887 42.3021V49.3579H236.832V41.8808C236.832 40.2485 235.99 39.4587 234.7 39.4587C233.541 39.4587 232.357 40.0905 232.357 42.3021V49.3579Z" fill="black"/>
<path d="M246.339 22.6377V21.9905H249.389V22.6377H248.215V26H247.513V22.6377H246.339ZM250.606 26H249.926V21.9905H250.606L251.9 25.1827L253.195 21.9905H253.886V26H253.206V24.7659C253.206 23.9596 253.206 23.7237 253.244 23.4385L252.224 26H251.577L250.562 23.444C250.6 23.6854 250.606 24.0638 250.606 24.5629V26Z" fill="black"/>
<path d="M85.4017 272.54V285.18H91.7617V287H83.4417V272.54H85.4017ZM94.4909 274.9C93.8109 274.9 93.2509 274.34 93.2509 273.66C93.2509 272.96 93.8109 272.42 94.4909 272.42C95.1709 272.42 95.7309 272.96 95.7309 273.66C95.7309 274.34 95.1709 274.9 94.4909 274.9ZM93.5709 287V277.22H95.4509V287H93.5709ZM99.8803 287H98.1803V272.28H100.06V278.9C100.7 277.62 102.02 276.94 103.62 276.94C106.42 276.94 108.1 279.14 108.1 282.16C108.1 285.12 106.34 287.24 103.5 287.24C101.96 287.24 100.66 286.56 100.02 285.22L99.8803 287ZM100.08 282.08C100.08 284.12 101.24 285.54 103.16 285.54C105.08 285.54 106.22 284.1 106.22 282.08C106.22 280.08 105.08 278.64 103.16 278.64C101.24 278.64 100.08 280.08 100.08 282.08ZM114.393 287.24C111.513 287.24 109.533 285.16 109.533 282.12C109.533 279.06 111.473 276.94 114.313 276.94C117.093 276.94 118.912 278.86 118.912 281.76V282.46L111.353 282.48C111.493 284.54 112.573 285.68 114.433 285.68C115.893 285.68 116.853 285.08 117.173 283.96H118.933C118.453 286.06 116.813 287.24 114.393 287.24ZM114.313 278.52C112.673 278.52 111.633 279.5 111.393 281.22H117.033C117.033 279.6 115.973 278.52 114.313 278.52ZM126.612 277.14V278.86H125.772C123.992 278.86 122.892 279.94 122.892 281.82V287H121.012V277.24H122.772L122.892 278.72C123.292 277.7 124.272 277.02 125.612 277.02C125.952 277.02 126.232 277.06 126.612 277.14ZM135.136 277.22H136.996V287H135.316L135.116 285.52C134.556 286.54 133.256 287.24 131.816 287.24C129.536 287.24 128.256 285.7 128.256 283.3V277.22H130.136V282.68C130.136 284.78 131.036 285.58 132.476 285.58C134.196 285.58 135.136 284.48 135.136 282.38V277.22ZM141.603 287H139.723V277.22H141.403L141.583 278.5C142.083 277.58 143.123 276.94 144.503 276.94C146.023 276.94 147.103 277.7 147.603 278.92C148.063 277.7 149.243 276.94 150.763 276.94C153.003 276.94 154.363 278.34 154.363 280.6V287H152.523V281.06C152.523 279.52 151.663 278.64 150.343 278.64C148.923 278.64 147.983 279.64 147.983 281.2V287H146.123V281.04C146.123 279.5 145.283 278.66 143.963 278.66C142.543 278.66 141.603 279.64 141.603 281.2V287ZM163.358 274.9C162.678 274.9 162.118 274.34 162.118 273.66C162.118 272.96 162.678 272.42 163.358 272.42C164.038 272.42 164.598 272.96 164.598 273.66C164.598 274.34 164.038 274.9 163.358 274.9ZM162.438 287V277.22H164.318V287H162.438ZM166.248 284.16H168.048C168.048 285.16 168.808 285.76 170.048 285.76C171.368 285.76 172.128 285.22 172.128 284.32C172.128 283.66 171.808 283.26 170.788 283L169.068 282.6C167.328 282.18 166.508 281.32 166.508 279.88C166.508 278.08 168.028 276.94 170.188 276.94C172.328 276.94 173.728 278.14 173.768 280H171.968C171.928 279.02 171.268 278.4 170.128 278.4C168.948 278.4 168.288 278.92 168.288 279.82C168.288 280.48 168.768 280.92 169.728 281.16L171.448 281.58C173.108 281.98 173.928 282.74 173.928 284.2C173.928 286.06 172.328 287.24 170.008 287.24C167.708 287.24 166.248 286.02 166.248 284.16ZM187.801 287.22C183.681 287.22 180.941 284.26 180.941 279.78C180.941 275.32 183.761 272.3 187.901 272.3C191.161 272.3 193.661 274.24 194.201 277.2H192.101C191.561 275.32 189.941 274.18 187.841 274.18C184.921 274.18 183.001 276.38 183.001 279.76C183.001 283.14 184.921 285.34 187.841 285.34C189.961 285.34 191.641 284.2 192.181 282.42H194.261C193.641 285.3 191.061 287.22 187.801 287.22ZM195.704 282.1C195.704 279.08 197.864 276.96 200.804 276.96C203.724 276.96 205.884 279.08 205.884 282.1C205.884 285.12 203.724 287.24 200.804 287.24C197.864 287.24 195.704 285.12 195.704 282.1ZM197.604 282.1C197.604 284.14 198.904 285.56 200.804 285.56C202.684 285.56 204.004 284.14 204.004 282.1C204.004 280.06 202.684 278.64 200.804 278.64C198.904 278.64 197.604 280.06 197.604 282.1ZM209.845 287H207.965V277.22H209.665L209.865 278.72C210.485 277.6 211.725 276.94 213.105 276.94C215.685 276.94 216.865 278.52 216.865 281.02V287H214.985V281.44C214.985 279.46 214.065 278.66 212.625 278.66C210.865 278.66 209.845 279.92 209.845 281.82V287ZM221.349 287H219.469V277.22H221.169L221.369 278.72C221.989 277.6 223.229 276.94 224.609 276.94C227.189 276.94 228.369 278.52 228.369 281.02V287H226.489V281.44C226.489 279.46 225.569 278.66 224.129 278.66C222.369 278.66 221.349 279.92 221.349 281.82V287ZM235.193 287.24C232.313 287.24 230.333 285.16 230.333 282.12C230.333 279.06 232.273 276.94 235.113 276.94C237.893 276.94 239.713 278.86 239.713 281.76V282.46L232.153 282.48C232.293 284.54 233.373 285.68 235.233 285.68C236.693 285.68 237.653 285.08 237.973 283.96H239.733C239.253 286.06 237.613 287.24 235.193 287.24ZM235.113 278.52C233.473 278.52 232.433 279.5 232.193 281.22H237.833C237.833 279.6 236.773 278.52 235.113 278.52ZM241.173 282.12C241.173 279.06 243.113 276.94 245.973 276.94C248.433 276.94 250.153 278.34 250.493 280.52H248.613C248.293 279.28 247.293 278.62 246.033 278.62C244.253 278.62 243.033 279.98 243.033 282.1C243.033 284.2 244.173 285.56 245.953 285.56C247.293 285.56 248.293 284.86 248.633 283.7H250.513C250.133 285.82 248.313 287.24 245.953 287.24C243.073 287.24 241.173 285.2 241.173 282.12ZM255.257 287H253.377V278.8H251.457V277.22H253.377V274.16H255.257V277.22H257.177V278.8H255.257V287ZM262.986 287.24C260.106 287.24 258.126 285.16 258.126 282.12C258.126 279.06 260.066 276.94 262.906 276.94C265.686 276.94 267.506 278.86 267.506 281.76V282.46L259.946 282.48C260.086 284.54 261.166 285.68 263.026 285.68C264.486 285.68 265.446 285.08 265.766 283.96H267.526C267.046 286.06 265.406 287.24 262.986 287.24ZM262.906 278.52C261.266 278.52 260.226 279.5 259.986 281.22H265.626C265.626 279.6 264.566 278.52 262.906 278.52ZM273.526 287.24C270.686 287.24 268.966 285.12 268.966 282.14C268.966 279.14 270.706 276.94 273.606 276.94C275.106 276.94 276.366 277.6 277.026 278.8V272.28H278.886V287H277.206L277.046 285.22C276.406 286.56 275.086 287.24 273.526 287.24ZM273.906 285.54C275.826 285.54 277.006 284.12 277.006 282.08C277.006 280.08 275.826 278.64 273.906 278.64C271.986 278.64 270.866 280.08 270.866 282.08C270.866 284.1 271.986 285.54 273.906 285.54Z" fill="black"/>
<rect x="16.5" y="328.5" width="330" height="53" rx="6.5" fill="#FF9902" fill-opacity="0.5" stroke="black"/>
<path d="M53.7751 410.504C53.7751 408.648 55.2311 407.448 57.4711 407.448C59.4231 407.448 60.7191 408.536 60.9431 410.36H60.1431C59.9831 408.952 59.0231 408.152 57.4711 408.152C55.7111 408.152 54.5431 409.08 54.5431 410.504C54.5431 411.592 55.1991 412.312 56.4951 412.648L58.5111 413.16C60.2231 413.592 61.1351 414.616 61.1351 416.072C61.1351 417.976 59.6631 419.192 57.3911 419.192C55.2631 419.192 53.8231 418.088 53.6471 416.312H54.4631C54.5271 417.608 55.6951 418.472 57.3911 418.472C59.1991 418.472 60.3671 417.544 60.3671 416.088C60.3671 414.968 59.7111 414.216 58.3671 413.88L56.3991 413.384C54.6871 412.952 53.7751 411.976 53.7751 410.504ZM66.1876 419.192C63.9636 419.192 62.4916 417.592 62.4916 415.176C62.4916 412.776 63.9476 411.128 66.0916 411.128C68.0916 411.128 69.4676 412.568 69.4676 414.664V415.176H63.2276C63.2916 417.272 64.3796 418.52 66.1876 418.52C67.5476 418.52 68.4116 417.928 68.7156 416.792H69.4676C69.0196 418.376 67.9156 419.192 66.1876 419.192ZM66.0916 411.8C64.5236 411.8 63.4196 412.888 63.2436 414.568H68.7156C68.7156 412.904 67.6756 411.8 66.0916 411.8ZM73.4154 419.192C71.7674 419.192 70.8234 418.28 70.8234 416.968C70.8234 415.56 71.9114 414.664 73.7034 414.52L76.3434 414.312V414.024C76.3434 412.296 75.3194 411.8 74.1034 411.8C72.6794 411.8 71.8314 412.472 71.8314 413.592H71.0954C71.0954 412.088 72.3114 411.128 74.1194 411.128C75.7674 411.128 77.0794 411.928 77.0794 413.912V419H76.4874L76.3434 417.56C75.8154 418.6 74.7434 419.192 73.4154 419.192ZM73.5114 418.536C75.3194 418.536 76.3434 417.224 76.3434 415.336V414.92L73.7674 415.128C72.2154 415.256 71.5594 416.008 71.5594 416.952C71.5594 418.008 72.3594 418.536 73.5114 418.536ZM83.0753 411.208V411.848H82.4993C81.0753 411.848 80.1473 412.888 80.1473 414.328V419H79.4113V411.32H80.0993L80.1633 412.552C80.4673 411.688 81.3153 411.128 82.4033 411.128C82.6433 411.128 82.8193 411.144 83.0753 411.208ZM83.7259 415.192C83.7259 412.76 85.1659 411.128 87.3739 411.128C89.0219 411.128 90.2539 412.104 90.6059 413.56H89.8539C89.5339 412.424 88.5099 411.784 87.3739 411.784C85.6619 411.784 84.4459 413.096 84.4459 415.176C84.4459 417.16 85.5659 418.52 87.2779 418.52C88.5099 418.52 89.5339 417.816 89.8859 416.776H90.6379C90.2219 418.232 88.9099 419.192 87.2779 419.192C85.1659 419.192 83.7259 417.592 83.7259 415.192ZM93.1473 418.984H92.4113V407.448H93.1473V412.808C93.6433 411.816 94.6033 411.128 95.9633 411.128C98.0273 411.128 98.8753 412.408 98.8753 414.328V419H98.1393V414.472C98.1393 412.44 97.2273 411.8 95.9153 411.8C94.0753 411.8 93.1473 413.208 93.1473 414.824V418.984ZM107.869 419.192C106.221 419.192 105.277 418.28 105.277 416.968C105.277 415.56 106.365 414.664 108.157 414.52L110.797 414.312V414.024C110.797 412.296 109.773 411.8 108.557 411.8C107.133 411.8 106.285 412.472 106.285 413.592H105.549C105.549 412.088 106.765 411.128 108.573 411.128C110.221 411.128 111.533 411.928 111.533 413.912V419H110.941L110.797 417.56C110.269 418.6 109.197 419.192 107.869 419.192ZM107.965 418.536C109.773 418.536 110.797 417.224 110.797 415.336V414.92L108.221 415.128C106.669 415.256 106.013 416.008 106.013 416.952C106.013 418.008 106.813 418.536 107.965 418.536ZM121.309 419.192C119.053 419.192 117.773 417.432 117.773 415.16C117.773 412.888 119.053 411.128 121.309 411.128C122.669 411.128 123.725 411.736 124.285 412.984V407.448H125.021V419H124.429L124.317 417.272C123.741 418.584 122.637 419.192 121.309 419.192ZM121.389 418.52C123.229 418.52 124.269 417.112 124.269 415.16C124.269 413.224 123.229 411.8 121.389 411.8C119.565 411.8 118.525 413.224 118.525 415.16C118.525 417.112 119.565 418.52 121.389 418.52ZM126.882 415.16C126.882 412.84 128.498 411.128 130.69 411.128C132.882 411.128 134.498 412.84 134.498 415.16C134.498 417.48 132.882 419.192 130.69 419.192C128.498 419.192 126.882 417.48 126.882 415.16ZM127.634 415.16C127.634 417.128 128.898 418.52 130.69 418.52C132.482 418.52 133.746 417.128 133.746 415.16C133.746 413.192 132.482 411.8 130.69 411.8C128.898 411.8 127.634 413.192 127.634 415.16ZM137.085 419H136.349V411.32H136.941L137.053 412.504C137.453 411.624 138.333 411.128 139.405 411.128C140.637 411.128 141.581 411.8 141.917 412.856C142.253 411.8 143.181 411.128 144.461 411.128C146.045 411.128 147.181 412.184 147.181 413.976V419H146.477V414.072C146.477 412.664 145.677 411.8 144.397 411.8C142.941 411.8 142.141 412.936 142.141 414.088V419H141.421V414.056C141.421 412.648 140.621 411.8 139.341 411.8C137.885 411.8 137.085 412.92 137.085 414.072V419ZM151.697 419.192C150.049 419.192 149.105 418.28 149.105 416.968C149.105 415.56 150.193 414.664 151.985 414.52L154.625 414.312V414.024C154.625 412.296 153.601 411.8 152.385 411.8C150.961 411.8 150.113 412.472 150.113 413.592H149.377C149.377 412.088 150.593 411.128 152.401 411.128C154.049 411.128 155.361 411.928 155.361 413.912V419H154.769L154.625 417.56C154.097 418.6 153.025 419.192 151.697 419.192ZM151.793 418.536C153.601 418.536 154.625 417.224 154.625 415.336V414.92L152.049 415.128C150.497 415.256 149.841 416.008 149.841 416.952C149.841 418.008 150.641 418.536 151.793 418.536ZM158.061 408.968C157.693 408.968 157.389 408.664 157.389 408.312C157.389 407.944 157.693 407.624 158.061 407.624C158.413 407.624 158.733 407.944 158.733 408.312C158.733 408.664 158.413 408.968 158.061 408.968ZM157.693 419V411.32H158.429V419H157.693ZM161.6 419H160.864V411.32H161.456L161.616 412.808C162.128 411.736 163.184 411.128 164.336 411.128C166.512 411.128 167.328 412.408 167.328 414.328V419H166.592V414.472C166.592 412.44 165.712 411.8 164.32 411.8C162.576 411.8 161.6 413.096 161.6 415.032V419ZM171.325 418.536C171.325 419.384 170.637 420.152 169.789 420.296V419.784C170.285 419.688 170.669 419.288 170.669 418.888C170.589 418.952 170.461 419 170.253 419C169.901 419 169.565 418.744 169.565 418.248C169.565 417.784 169.901 417.432 170.397 417.432C170.861 417.432 171.325 417.816 171.325 418.536ZM177.57 415.192C177.57 412.76 179.01 411.128 181.218 411.128C182.866 411.128 184.098 412.104 184.45 413.56H183.698C183.378 412.424 182.354 411.784 181.218 411.784C179.506 411.784 178.29 413.096 178.29 415.176C178.29 417.16 179.41 418.52 181.122 418.52C182.354 418.52 183.378 417.816 183.73 416.776H184.482C184.066 418.232 182.754 419.192 181.122 419.192C179.01 419.192 177.57 417.592 177.57 415.192ZM185.679 415.16C185.679 412.84 187.295 411.128 189.487 411.128C191.679 411.128 193.295 412.84 193.295 415.16C193.295 417.48 191.679 419.192 189.487 419.192C187.295 419.192 185.679 417.48 185.679 415.16ZM186.431 415.16C186.431 417.128 187.695 418.52 189.487 418.52C191.279 418.52 192.543 417.128 192.543 415.16C192.543 413.192 191.279 411.8 189.487 411.8C187.695 411.8 186.431 413.192 186.431 415.16ZM195.882 419H195.146V411.32H195.738L195.898 412.808C196.41 411.736 197.466 411.128 198.618 411.128C200.794 411.128 201.61 412.408 201.61 414.328V419H200.874V414.472C200.874 412.44 199.994 411.8 198.602 411.8C196.858 411.8 195.882 413.096 195.882 415.032V419ZM205.335 419H204.599V411.96H203.047V411.32H204.599V408.888H205.335V411.32H206.887V411.96H205.335V419ZM212.091 411.208V411.848H211.515C210.091 411.848 209.163 412.888 209.163 414.328V419H208.427V411.32H209.115L209.179 412.552C209.483 411.688 210.331 411.128 211.419 411.128C211.659 411.128 211.835 411.144 212.091 411.208ZM215.494 419.192C213.846 419.192 212.902 418.28 212.902 416.968C212.902 415.56 213.99 414.664 215.782 414.52L218.422 414.312V414.024C218.422 412.296 217.398 411.8 216.182 411.8C214.758 411.8 213.91 412.472 213.91 413.592H213.174C213.174 412.088 214.39 411.128 216.198 411.128C217.846 411.128 219.158 411.928 219.158 413.912V419H218.566L218.422 417.56C217.894 418.6 216.822 419.192 215.494 419.192ZM215.59 418.536C217.398 418.536 218.422 417.224 218.422 415.336V414.92L215.846 415.128C214.294 415.256 213.638 416.008 213.638 416.952C213.638 418.008 214.438 418.536 215.59 418.536ZM220.913 415.192C220.913 412.76 222.353 411.128 224.561 411.128C226.209 411.128 227.441 412.104 227.793 413.56H227.041C226.721 412.424 225.697 411.784 224.561 411.784C222.849 411.784 221.633 413.096 221.633 415.176C221.633 417.16 222.753 418.52 224.465 418.52C225.697 418.52 226.721 417.816 227.073 416.776H227.825C227.409 418.232 226.097 419.192 224.465 419.192C222.353 419.192 220.913 417.592 220.913 415.192ZM230.991 419H230.255V411.96H228.703V411.32H230.255V408.888H230.991V411.32H232.543V411.96H230.991V419ZM240.744 419.192C239.096 419.192 238.152 418.28 238.152 416.968C238.152 415.56 239.24 414.664 241.032 414.52L243.672 414.312V414.024C243.672 412.296 242.648 411.8 241.432 411.8C240.008 411.8 239.16 412.472 239.16 413.592H238.424C238.424 412.088 239.64 411.128 241.448 411.128C243.096 411.128 244.408 411.928 244.408 413.912V419H243.816L243.672 417.56C243.144 418.6 242.072 419.192 240.744 419.192ZM240.84 418.536C242.648 418.536 243.672 417.224 243.672 415.336V414.92L241.096 415.128C239.544 415.256 238.888 416.008 238.888 416.952C238.888 418.008 239.688 418.536 240.84 418.536ZM249.699 419.192C247.443 419.192 246.163 417.432 246.163 415.16C246.163 412.888 247.443 411.128 249.699 411.128C251.059 411.128 252.115 411.736 252.675 412.984V407.448H253.411V419H252.819L252.707 417.272C252.131 418.584 251.027 419.192 249.699 419.192ZM249.779 418.52C251.619 418.52 252.659 417.112 252.659 415.16C252.659 413.224 251.619 411.8 249.779 411.8C247.955 411.8 246.915 413.224 246.915 415.16C246.915 417.112 247.955 418.52 249.779 418.52ZM258.809 419.192C256.553 419.192 255.273 417.432 255.273 415.16C255.273 412.888 256.553 411.128 258.809 411.128C260.169 411.128 261.225 411.736 261.785 412.984V407.448H262.521V419H261.929L261.817 417.272C261.241 418.584 260.137 419.192 258.809 419.192ZM258.889 418.52C260.729 418.52 261.769 417.112 261.769 415.16C261.769 413.224 260.729 411.8 258.889 411.8C257.065 411.8 256.025 413.224 256.025 415.16C256.025 417.112 257.065 418.52 258.889 418.52ZM268.622 411.208V411.848H268.046C266.622 411.848 265.694 412.888 265.694 414.328V419H264.958V411.32H265.646L265.71 412.552C266.014 411.688 266.862 411.128 267.95 411.128C268.19 411.128 268.366 411.144 268.622 411.208ZM272.969 419.192C270.745 419.192 269.273 417.592 269.273 415.176C269.273 412.776 270.729 411.128 272.873 411.128C274.873 411.128 276.249 412.568 276.249 414.664V415.176H270.009C270.073 417.272 271.161 418.52 272.969 418.52C274.329 418.52 275.193 417.928 275.497 416.792H276.249C275.801 418.376 274.697 419.192 272.969 419.192ZM272.873 411.8C271.305 411.8 270.201 412.888 270.025 414.568H275.497C275.497 412.904 274.457 411.8 272.873 411.8ZM277.411 416.92H278.131C278.131 417.912 278.867 418.52 280.051 418.52C281.347 418.52 282.147 417.944 282.147 417C282.147 416.248 281.779 415.864 280.787 415.608L279.491 415.272C278.179 414.936 277.555 414.2 277.555 413.256C277.555 411.976 278.611 411.128 280.195 411.128C281.779 411.128 282.771 411.976 282.819 413.368H282.099C282.051 412.376 281.347 411.8 280.195 411.8C278.963 411.8 278.291 412.312 278.291 413.256C278.291 413.912 278.739 414.376 279.667 414.616L280.947 414.952C282.291 415.304 282.883 415.928 282.883 417C282.883 418.312 281.763 419.192 280.083 419.192C278.451 419.192 277.411 418.312 277.411 416.92ZM284.161 416.92H284.881C284.881 417.912 285.617 418.52 286.801 418.52C288.097 418.52 288.897 417.944 288.897 417C288.897 416.248 288.529 415.864 287.537 415.608L286.241 415.272C284.929 414.936 284.305 414.2 284.305 413.256C284.305 411.976 285.361 411.128 286.945 411.128C288.529 411.128 289.521 411.976 289.569 413.368H288.849C288.801 412.376 288.097 411.8 286.945 411.8C285.713 411.8 285.041 412.312 285.041 413.256C285.041 413.912 285.489 414.376 286.417 414.616L287.697 414.952C289.041 415.304 289.633 415.928 289.633 417C289.633 418.312 288.513 419.192 286.833 419.192C285.201 419.192 284.161 418.312 284.161 416.92ZM295.507 415.16C295.507 412.84 297.123 411.128 299.315 411.128C301.507 411.128 303.123 412.84 303.123 415.16C303.123 417.48 301.507 419.192 299.315 419.192C297.123 419.192 295.507 417.48 295.507 415.16ZM296.259 415.16C296.259 417.128 297.523 418.52 299.315 418.52C301.107 418.52 302.371 417.128 302.371 415.16C302.371 413.192 301.107 411.8 299.315 411.8C297.523 411.8 296.259 413.192 296.259 415.16ZM308.638 411.208V411.848H308.062C306.638 411.848 305.71 412.888 305.71 414.328V419H304.974V411.32H305.662L305.726 412.552C306.03 411.688 306.878 411.128 307.966 411.128C308.206 411.128 308.382 411.144 308.638 411.208ZM154.821 441H154.085V429.448H154.821V437.624L158.997 433.32H159.941L156.965 436.392L159.973 441H159.125L156.469 436.888L154.821 438.6V441ZM164.234 441.192C162.01 441.192 160.538 439.592 160.538 437.176C160.538 434.776 161.994 433.128 164.138 433.128C166.138 433.128 167.514 434.568 167.514 436.664V437.176H161.274C161.338 439.272 162.426 440.52 164.234 440.52C165.594 440.52 166.458 439.928 166.762 438.792H167.514C167.066 440.376 165.962 441.192 164.234 441.192ZM164.138 433.8C162.57 433.8 161.466 434.888 161.29 436.568H166.762C166.762 434.904 165.722 433.8 164.138 433.8ZM168.376 444.248V443.656H169.096C169.72 443.656 170.488 443.656 170.888 442.568L171.272 441.528L168.152 433.32H168.92L171.624 440.52L174.216 433.32H174.968L171.56 442.776C171.16 443.88 170.456 444.344 169.416 444.344C169 444.344 168.696 444.312 168.376 444.248ZM177.933 441L175.373 433.32H176.125L177.853 438.536C178.013 439 178.157 439.464 178.317 440.056C178.445 439.48 178.749 438.568 178.765 438.536L180.493 433.32H181.245L182.973 438.536C183.133 439 183.277 439.448 183.437 440.04C183.613 439.384 183.565 439.512 183.885 438.536L185.629 433.32H186.381L183.805 441H183.053L181.229 435.512C181.101 435.144 180.989 434.792 180.877 434.28C180.765 434.728 180.637 435.144 180.509 435.512L178.685 441H177.933ZM186.945 437.16C186.945 434.84 188.561 433.128 190.753 433.128C192.945 433.128 194.561 434.84 194.561 437.16C194.561 439.48 192.945 441.192 190.753 441.192C188.561 441.192 186.945 439.48 186.945 437.16ZM187.697 437.16C187.697 439.128 188.961 440.52 190.753 440.52C192.545 440.52 193.809 439.128 193.809 437.16C193.809 435.192 192.545 433.8 190.753 433.8C188.961 433.8 187.697 435.192 187.697 437.16ZM200.075 433.208V433.848H199.499C198.075 433.848 197.147 434.888 197.147 436.328V441H196.411V433.32H197.099L197.163 434.552C197.467 433.688 198.315 433.128 199.403 433.128C199.643 433.128 199.819 433.144 200.075 433.208ZM204.262 441.192C202.006 441.192 200.726 439.432 200.726 437.16C200.726 434.888 202.006 433.128 204.262 433.128C205.622 433.128 206.678 433.736 207.238 434.984V429.448H207.974V441H207.382L207.27 439.272C206.694 440.584 205.59 441.192 204.262 441.192ZM204.342 440.52C206.182 440.52 207.222 439.112 207.222 437.16C207.222 435.224 206.182 433.8 204.342 433.8C202.518 433.8 201.478 435.224 201.478 437.16C201.478 439.112 202.518 440.52 204.342 440.52Z" fill="black" fill-opacity="0.6"/>
<path d="M34.0459 362H30.8619V350.64H34.0459C37.4859 350.64 39.7739 352.912 39.7739 356.32C39.7739 359.728 37.4859 362 34.0459 362ZM34.0459 351.344H31.6299V361.296H34.0459C37.0379 361.296 38.9899 359.344 38.9899 356.32C38.9899 353.28 37.0699 351.344 34.0459 351.344ZM41.14 358.16C41.14 355.84 42.756 354.128 44.948 354.128C47.14 354.128 48.756 355.84 48.756 358.16C48.756 360.48 47.14 362.192 44.948 362.192C42.756 362.192 41.14 360.48 41.14 358.16ZM41.892 358.16C41.892 360.128 43.156 361.52 44.948 361.52C46.74 361.52 48.004 360.128 48.004 358.16C48.004 356.192 46.74 354.8 44.948 354.8C43.156 354.8 41.892 356.192 41.892 358.16ZM51.3426 362H50.6066V354.32H51.1986L51.3106 355.504C51.7106 354.624 52.5906 354.128 53.6626 354.128C54.8946 354.128 55.8386 354.8 56.1746 355.856C56.5106 354.8 57.4386 354.128 58.7186 354.128C60.3026 354.128 61.4386 355.184 61.4386 356.976V362H60.7346V357.072C60.7346 355.664 59.9346 354.8 58.6546 354.8C57.1986 354.8 56.3986 355.936 56.3986 357.088V362H55.6786V357.056C55.6786 355.648 54.8786 354.8 53.5986 354.8C52.1426 354.8 51.3426 355.92 51.3426 357.072V362ZM65.9545 362.192C64.3065 362.192 63.3625 361.28 63.3625 359.968C63.3625 358.56 64.4505 357.664 66.2425 357.52L68.8825 357.312V357.024C68.8825 355.296 67.8585 354.8 66.6425 354.8C65.2185 354.8 64.3705 355.472 64.3705 356.592H63.6345C63.6345 355.088 64.8505 354.128 66.6585 354.128C68.3065 354.128 69.6185 354.928 69.6185 356.912V362H69.0265L68.8825 360.56C68.3545 361.6 67.2825 362.192 65.9545 362.192ZM66.0505 361.536C67.8585 361.536 68.8825 360.224 68.8825 358.336V357.92L66.3065 358.128C64.7545 358.256 64.0985 359.008 64.0985 359.952C64.0985 361.008 64.8985 361.536 66.0505 361.536ZM72.3184 351.968C71.9504 351.968 71.6464 351.664 71.6464 351.312C71.6464 350.944 71.9504 350.624 72.3184 350.624C72.6704 350.624 72.9904 350.944 72.9904 351.312C72.9904 351.664 72.6704 351.968 72.3184 351.968ZM71.9504 362V354.32H72.6864V362H71.9504ZM75.8583 362H75.1223V354.32H75.7143L75.8743 355.808C76.3863 354.736 77.4423 354.128 78.5943 354.128C80.7703 354.128 81.5863 355.408 81.5863 357.328V362H80.8503V357.472C80.8503 355.44 79.9703 354.8 78.5783 354.8C76.8343 354.8 75.8583 356.096 75.8583 358.032V362ZM85.5831 361.536C85.5831 362.384 84.8951 363.152 84.0471 363.296V362.784C84.5431 362.688 84.9271 362.288 84.9271 361.888C84.8471 361.952 84.7191 362 84.5111 362C84.1591 362 83.8231 361.744 83.8231 361.248C83.8231 360.784 84.1591 360.432 84.6551 360.432C85.1191 360.432 85.5831 360.816 85.5831 361.536ZM91.8275 358.192C91.8275 355.76 93.2675 354.128 95.4755 354.128C97.1235 354.128 98.3555 355.104 98.7075 356.56H97.9555C97.6355 355.424 96.6115 354.784 95.4755 354.784C93.7635 354.784 92.5475 356.096 92.5475 358.176C92.5475 360.16 93.6675 361.52 95.3795 361.52C96.6115 361.52 97.6355 360.816 97.9875 359.776H98.7395C98.3235 361.232 97.0115 362.192 95.3795 362.192C93.2675 362.192 91.8275 360.592 91.8275 358.192ZM99.9369 358.16C99.9369 355.84 101.553 354.128 103.745 354.128C105.937 354.128 107.553 355.84 107.553 358.16C107.553 360.48 105.937 362.192 103.745 362.192C101.553 362.192 99.9369 360.48 99.9369 358.16ZM100.689 358.16C100.689 360.128 101.953 361.52 103.745 361.52C105.537 361.52 106.801 360.128 106.801 358.16C106.801 356.192 105.537 354.8 103.745 354.8C101.953 354.8 100.689 356.192 100.689 358.16ZM110.14 362H109.404V354.32H109.996L110.156 355.808C110.668 354.736 111.724 354.128 112.876 354.128C115.052 354.128 115.868 355.408 115.868 357.328V362H115.132V357.472C115.132 355.44 114.252 354.8 112.86 354.8C111.116 354.8 110.14 356.096 110.14 358.032V362ZM119.592 362H118.856V354.96H117.304V354.32H118.856V351.888H119.592V354.32H121.144V354.96H119.592V362ZM126.349 354.208V354.848H125.773C124.349 354.848 123.421 355.888 123.421 357.328V362H122.685V354.32H123.373L123.437 355.552C123.741 354.688 124.589 354.128 125.677 354.128C125.917 354.128 126.093 354.144 126.349 354.208ZM129.751 362.192C128.103 362.192 127.159 361.28 127.159 359.968C127.159 358.56 128.247 357.664 130.039 357.52L132.679 357.312V357.024C132.679 355.296 131.655 354.8 130.439 354.8C129.015 354.8 128.167 355.472 128.167 356.592H127.431C127.431 355.088 128.647 354.128 130.455 354.128C132.103 354.128 133.415 354.928 133.415 356.912V362H132.823L132.679 360.56C132.151 361.6 131.079 362.192 129.751 362.192ZM129.847 361.536C131.655 361.536 132.679 360.224 132.679 358.336V357.92L130.103 358.128C128.551 358.256 127.895 359.008 127.895 359.952C127.895 361.008 128.695 361.536 129.847 361.536ZM135.171 358.192C135.171 355.76 136.611 354.128 138.819 354.128C140.467 354.128 141.699 355.104 142.051 356.56H141.299C140.979 355.424 139.955 354.784 138.819 354.784C137.107 354.784 135.891 356.096 135.891 358.176C135.891 360.16 137.011 361.52 138.723 361.52C139.955 361.52 140.979 360.816 141.331 359.776H142.083C141.667 361.232 140.355 362.192 138.723 362.192C136.611 362.192 135.171 360.592 135.171 358.192ZM145.249 362H144.513V354.96H142.961V354.32H144.513V351.888H145.249V354.32H146.801V354.96H145.249V362ZM155.001 362.192C153.353 362.192 152.409 361.28 152.409 359.968C152.409 358.56 153.497 357.664 155.289 357.52L157.929 357.312V357.024C157.929 355.296 156.905 354.8 155.689 354.8C154.265 354.8 153.417 355.472 153.417 356.592H152.681C152.681 355.088 153.897 354.128 155.705 354.128C157.353 354.128 158.665 354.928 158.665 356.912V362H158.073L157.929 360.56C157.401 361.6 156.329 362.192 155.001 362.192ZM155.097 361.536C156.905 361.536 157.929 360.224 157.929 358.336V357.92L155.353 358.128C153.801 358.256 153.145 359.008 153.145 359.952C153.145 361.008 153.945 361.536 155.097 361.536ZM163.957 362.192C161.701 362.192 160.421 360.432 160.421 358.16C160.421 355.888 161.701 354.128 163.957 354.128C165.317 354.128 166.373 354.736 166.933 355.984V350.448H167.669V362H167.077L166.965 360.272C166.389 361.584 165.285 362.192 163.957 362.192ZM164.037 361.52C165.877 361.52 166.917 360.112 166.917 358.16C166.917 356.224 165.877 354.8 164.037 354.8C162.213 354.8 161.173 356.224 161.173 358.16C161.173 360.112 162.213 361.52 164.037 361.52ZM173.067 362.192C170.811 362.192 169.531 360.432 169.531 358.16C169.531 355.888 170.811 354.128 173.067 354.128C174.427 354.128 175.483 354.736 176.043 355.984V350.448H176.779V362H176.187L176.075 360.272C175.499 361.584 174.395 362.192 173.067 362.192ZM173.147 361.52C174.987 361.52 176.027 360.112 176.027 358.16C176.027 356.224 174.987 354.8 173.147 354.8C171.323 354.8 170.283 356.224 170.283 358.16C170.283 360.112 171.323 361.52 173.147 361.52ZM182.88 354.208V354.848H182.304C180.88 354.848 179.952 355.888 179.952 357.328V362H179.216V354.32H179.904L179.968 355.552C180.272 354.688 181.12 354.128 182.208 354.128C182.448 354.128 182.624 354.144 182.88 354.208ZM187.227 362.192C185.003 362.192 183.531 360.592 183.531 358.176C183.531 355.776 184.987 354.128 187.131 354.128C189.131 354.128 190.507 355.568 190.507 357.664V358.176H184.267C184.331 360.272 185.419 361.52 187.227 361.52C188.587 361.52 189.451 360.928 189.755 359.792H190.507C190.059 361.376 188.955 362.192 187.227 362.192ZM187.131 354.8C185.563 354.8 184.459 355.888 184.283 357.568H189.755C189.755 355.904 188.715 354.8 187.131 354.8ZM191.669 359.92H192.389C192.389 360.912 193.125 361.52 194.309 361.52C195.605 361.52 196.405 360.944 196.405 360C196.405 359.248 196.037 358.864 195.045 358.608L193.749 358.272C192.437 357.936 191.813 357.2 191.813 356.256C191.813 354.976 192.869 354.128 194.453 354.128C196.037 354.128 197.029 354.976 197.077 356.368H196.357C196.309 355.376 195.605 354.8 194.453 354.8C193.221 354.8 192.549 355.312 192.549 356.256C192.549 356.912 192.997 357.376 193.925 357.616L195.205 357.952C196.549 358.304 197.141 358.928 197.141 360C197.141 361.312 196.021 362.192 194.341 362.192C192.709 362.192 191.669 361.312 191.669 359.92ZM198.419 359.92H199.139C199.139 360.912 199.875 361.52 201.059 361.52C202.355 361.52 203.155 360.944 203.155 360C203.155 359.248 202.787 358.864 201.795 358.608L200.499 358.272C199.187 357.936 198.563 357.2 198.563 356.256C198.563 354.976 199.619 354.128 201.203 354.128C202.787 354.128 203.779 354.976 203.827 356.368H203.107C203.059 355.376 202.355 354.8 201.203 354.8C199.971 354.8 199.299 355.312 199.299 356.256C199.299 356.912 199.747 357.376 200.675 357.616L201.955 357.952C203.299 358.304 203.891 358.928 203.891 360C203.891 361.312 202.771 362.192 201.091 362.192C199.459 362.192 198.419 361.312 198.419 359.92ZM209.765 358.16C209.765 355.84 211.381 354.128 213.573 354.128C215.765 354.128 217.381 355.84 217.381 358.16C217.381 360.48 215.765 362.192 213.573 362.192C211.381 362.192 209.765 360.48 209.765 358.16ZM210.517 358.16C210.517 360.128 211.781 361.52 213.573 361.52C215.365 361.52 216.629 360.128 216.629 358.16C216.629 356.192 215.365 354.8 213.573 354.8C211.781 354.8 210.517 356.192 210.517 358.16ZM222.896 354.208V354.848H222.32C220.896 354.848 219.968 355.888 219.968 357.328V362H219.232V354.32H219.92L219.984 355.552C220.288 354.688 221.136 354.128 222.224 354.128C222.464 354.128 222.64 354.144 222.896 354.208ZM234.204 362H233.468V350.448H234.204V358.624L238.38 354.32H239.324L236.348 357.392L239.356 362H238.508L235.852 357.888L234.204 359.6V362ZM243.617 362.192C241.393 362.192 239.921 360.592 239.921 358.176C239.921 355.776 241.377 354.128 243.521 354.128C245.521 354.128 246.897 355.568 246.897 357.664V358.176H240.657C240.721 360.272 241.809 361.52 243.617 361.52C244.977 361.52 245.841 360.928 246.145 359.792H246.897C246.449 361.376 245.345 362.192 243.617 362.192ZM243.521 354.8C241.953 354.8 240.849 355.888 240.673 357.568H246.145C246.145 355.904 245.105 354.8 243.521 354.8ZM247.759 365.248V364.656H248.479C249.103 364.656 249.871 364.656 250.271 363.568L250.655 362.528L247.535 354.32H248.303L251.007 361.52L253.599 354.32H254.351L250.943 363.776C250.543 364.88 249.839 365.344 248.799 365.344C248.383 365.344 248.079 365.312 247.759 365.248ZM257.316 362L254.756 354.32H255.508L257.236 359.536C257.396 360 257.54 360.464 257.7 361.056C257.828 360.48 258.132 359.568 258.148 359.536L259.876 354.32H260.628L262.356 359.536C262.516 360 262.66 360.448 262.82 361.04C262.996 360.384 262.948 360.512 263.268 359.536L265.012 354.32H265.764L263.188 362H262.436L260.612 356.512C260.484 356.144 260.372 355.792 260.26 355.28C260.148 355.728 260.02 356.144 259.892 356.512L258.068 362H257.316ZM266.328 358.16C266.328 355.84 267.944 354.128 270.136 354.128C272.328 354.128 273.944 355.84 273.944 358.16C273.944 360.48 272.328 362.192 270.136 362.192C267.944 362.192 266.328 360.48 266.328 358.16ZM267.08 358.16C267.08 360.128 268.344 361.52 270.136 361.52C271.928 361.52 273.192 360.128 273.192 358.16C273.192 356.192 271.928 354.8 270.136 354.8C268.344 354.8 267.08 356.192 267.08 358.16ZM279.458 354.208V354.848H278.882C277.458 354.848 276.53 355.888 276.53 357.328V362H275.794V354.32H276.482L276.546 355.552C276.85 354.688 277.698 354.128 278.786 354.128C279.026 354.128 279.202 354.144 279.458 354.208ZM283.645 362.192C281.389 362.192 280.109 360.432 280.109 358.16C280.109 355.888 281.389 354.128 283.645 354.128C285.005 354.128 286.061 354.736 286.621 355.984V350.448H287.357V362H286.765L286.653 360.272C286.077 361.584 284.973 362.192 283.645 362.192ZM283.725 361.52C285.565 361.52 286.605 360.112 286.605 358.16C286.605 356.224 285.565 354.8 283.725 354.8C281.901 354.8 280.861 356.224 280.861 358.16C280.861 360.112 281.901 361.52 283.725 361.52Z" fill="black" fill-opacity="0.4"/>
<g filter="url(#filter0_d_16_369)">
<circle cx="181.5" cy="176.5" r="66.5" fill="#FF7200"/>
<circle cx="181.5" cy="176.5" r="66" stroke="black"/>
</g>
<rect width="65" height="65" transform="translate(149 144)" fill="#FF7200"/>
<path d="M166.179 161.179C163.149 164.209 161.086 168.07 160.25 172.273C159.414 176.476 159.843 180.832 161.483 184.791C163.123 188.75 165.9 192.134 169.463 194.515C173.026 196.896 177.215 198.167 181.5 198.167C185.785 198.167 189.974 196.896 193.537 194.515C197.1 192.134 199.878 188.75 201.517 184.791C203.157 180.832 203.586 176.476 202.75 172.273C201.914 168.07 199.851 164.209 196.821 161.179" stroke="white" stroke-width="7.33333" stroke-linecap="round"/>
<path d="M181.5 165.667L181.5 154.833" stroke="white" stroke-width="7.33333" stroke-linecap="round"/>
<circle cx="316.667" cy="353.667" r="8" stroke="#222222"/>
<path d="M328.667 365.667L324.667 361.667" stroke="#222222" stroke-linecap="round"/>
<g clip-path="url(#clip1_16_369)">
<rect width="363" height="604" fill="#FAFAFA"/>
<rect x="-35" y="214.064" width="300.296" height="9.80283" rx="2" transform="rotate(-60 -35 214.064)" fill="#FF7200" fill-opacity="0.1"/>
<rect x="-72" y="214.064" width="300.296" height="9.80283" rx="2" transform="rotate(-60 -72 214.064)" fill="#FF7200" fill-opacity="0.1"/>
<rect x="110.117" y="21.679" width="20.3961" height="8.41265" rx="1.09699" fill="#FF7200"/>
<rect x="110.117" y="53.6033" width="20.3961" height="2.95596" rx="1.09699" fill="#FF7200"/>
<rect x="100.067" y="39.3425" width="20.3961" height="4.43393" rx="1.09699" transform="rotate(-60 100.067 39.3425)" fill="#FF7200"/>
<rect x="126.67" y="54.4178" width="20.3961" height="4.43393" rx="1.09699" transform="rotate(-60 126.67 54.4178)" fill="#FF7200"/>
<rect x="133.321" y="43.5492" width="20.3961" height="8.41333" rx="1.09699" transform="rotate(-120 133.321 43.5492)" fill="#FF7200"/>
<rect x="110.265" y="56.7826" width="20.5291" height="2.95596" rx="1.09699" transform="rotate(-120 110.265 56.7826)" fill="#FF7200"/>
<path d="M152.413 29.8754V45.4087H160.101V49.3579H148.148V29.8754H152.413ZM164.278 34.1405C162.988 34.1405 161.961 33.1137 161.961 31.8236C161.961 30.5336 162.988 29.5331 164.278 29.5331C165.542 29.5331 166.569 30.5336 166.569 31.8236C166.569 33.1137 165.542 34.1405 164.278 34.1405ZM162.277 49.3579V36.194H166.332V49.3579H162.277ZM173.191 49.3579H169.373V29.5068H173.428V37.721C174.218 36.5363 175.955 35.7465 177.851 35.7465C181.537 35.7465 183.88 38.6162 183.88 42.9076C183.88 46.9884 181.273 49.7002 177.535 49.7002C175.692 49.7002 174.112 48.884 173.401 47.6729L173.191 49.3579ZM173.454 42.697C173.454 44.6716 174.77 45.988 176.666 45.988C178.588 45.988 179.799 44.6452 179.799 42.697C179.799 40.7487 178.588 39.406 176.666 39.406C174.77 39.406 173.454 40.7224 173.454 42.697ZM192.322 49.7002C188.346 49.7002 185.503 46.8041 185.503 42.7496C185.503 38.6425 188.267 35.7728 192.243 35.7728C196.376 35.7728 198.956 38.4845 198.956 42.776V43.8028L189.399 43.8554C189.636 45.593 190.611 46.4092 192.401 46.4092C193.928 46.4092 195.007 45.8563 195.297 44.9085H199.009C198.535 47.8309 195.929 49.7002 192.322 49.7002ZM192.269 39.0638C190.663 39.0638 189.768 39.7746 189.452 41.3543H194.928C194.928 39.9589 193.901 39.0638 192.269 39.0638ZM210.414 36.194V40.0116H209.124C206.807 40.0116 205.412 41.0383 205.412 43.6448V49.3579H201.357V36.2204H205.175L205.386 38.1686C205.938 36.8786 207.097 36.0097 208.861 36.0097C209.335 36.0097 209.861 36.0624 210.414 36.194ZM221.205 36.194H225.26V49.3579H221.442L221.179 47.8836C220.363 48.963 218.73 49.7002 217.151 49.7002C214.149 49.7002 212.306 47.6993 212.306 44.4609V36.194H216.361V42.9866C216.361 45.1455 217.098 46.0933 218.757 46.0933C220.494 46.0933 221.205 45.1981 221.205 43.0392V36.194ZM232.357 49.3579H228.302V36.194H232.093L232.357 37.5631C233.015 36.6416 234.305 35.7728 236.201 35.7728C238.175 35.7728 239.439 36.6943 240.202 38.0896C240.887 36.6943 242.44 35.7728 244.336 35.7728C247.732 35.7728 249.417 37.7474 249.417 40.7487V49.3579H245.363V41.8808C245.363 40.2222 244.494 39.4323 243.204 39.4323C242.045 39.4323 240.887 40.0642 240.887 42.3021V49.3579H236.832V41.8808C236.832 40.2485 235.99 39.4587 234.7 39.4587C233.541 39.4587 232.357 40.0905 232.357 42.3021V49.3579Z" fill="black"/>
<path d="M246.339 22.6377V21.9905H249.389V22.6377H248.215V26H247.513V22.6377H246.339ZM250.606 26H249.926V21.9905H250.606L251.9 25.1827L253.195 21.9905H253.886V26H253.206V24.7659C253.206 23.9596 253.206 23.7237 253.244 23.4385L252.224 26H251.577L250.562 23.444C250.6 23.6854 250.606 24.0638 250.606 24.5629V26Z" fill="black"/>
<path d="M85.4017 254.54V267.18H91.7617V269H83.4417V254.54H85.4017ZM94.4909 256.9C93.8109 256.9 93.2509 256.34 93.2509 255.66C93.2509 254.96 93.8109 254.42 94.4909 254.42C95.1709 254.42 95.7309 254.96 95.7309 255.66C95.7309 256.34 95.1709 256.9 94.4909 256.9ZM93.5709 269V259.22H95.4509V269H93.5709ZM99.8803 269H98.1803V254.28H100.06V260.9C100.7 259.62 102.02 258.94 103.62 258.94C106.42 258.94 108.1 261.14 108.1 264.16C108.1 267.12 106.34 269.24 103.5 269.24C101.96 269.24 100.66 268.56 100.02 267.22L99.8803 269ZM100.08 264.08C100.08 266.12 101.24 267.54 103.16 267.54C105.08 267.54 106.22 266.1 106.22 264.08C106.22 262.08 105.08 260.64 103.16 260.64C101.24 260.64 100.08 262.08 100.08 264.08ZM114.393 269.24C111.513 269.24 109.533 267.16 109.533 264.12C109.533 261.06 111.473 258.94 114.313 258.94C117.093 258.94 118.912 260.86 118.912 263.76V264.46L111.353 264.48C111.493 266.54 112.573 267.68 114.433 267.68C115.893 267.68 116.853 267.08 117.173 265.96H118.933C118.453 268.06 116.813 269.24 114.393 269.24ZM114.313 260.52C112.673 260.52 111.633 261.5 111.393 263.22H117.033C117.033 261.6 115.973 260.52 114.313 260.52ZM126.612 259.14V260.86H125.772C123.992 260.86 122.892 261.94 122.892 263.82V269H121.012V259.24H122.772L122.892 260.72C123.292 259.7 124.272 259.02 125.612 259.02C125.952 259.02 126.232 259.06 126.612 259.14ZM135.136 259.22H136.996V269H135.316L135.116 267.52C134.556 268.54 133.256 269.24 131.816 269.24C129.536 269.24 128.256 267.7 128.256 265.3V259.22H130.136V264.68C130.136 266.78 131.036 267.58 132.476 267.58C134.196 267.58 135.136 266.48 135.136 264.38V259.22ZM141.603 269H139.723V259.22H141.403L141.583 260.5C142.083 259.58 143.123 258.94 144.503 258.94C146.023 258.94 147.103 259.7 147.603 260.92C148.063 259.7 149.243 258.94 150.763 258.94C153.003 258.94 154.363 260.34 154.363 262.6V269H152.523V263.06C152.523 261.52 151.663 260.64 150.343 260.64C148.923 260.64 147.983 261.64 147.983 263.2V269H146.123V263.04C146.123 261.5 145.283 260.66 143.963 260.66C142.543 260.66 141.603 261.64 141.603 263.2V269ZM163.358 256.9C162.678 256.9 162.118 256.34 162.118 255.66C162.118 254.96 162.678 254.42 163.358 254.42C164.038 254.42 164.598 254.96 164.598 255.66C164.598 256.34 164.038 256.9 163.358 256.9ZM162.438 269V259.22H164.318V269H162.438ZM166.248 266.16H168.048C168.048 267.16 168.808 267.76 170.048 267.76C171.368 267.76 172.128 267.22 172.128 266.32C172.128 265.66 171.808 265.26 170.788 265L169.068 264.6C167.328 264.18 166.508 263.32 166.508 261.88C166.508 260.08 168.028 258.94 170.188 258.94C172.328 258.94 173.728 260.14 173.768 262H171.968C171.928 261.02 171.268 260.4 170.128 260.4C168.948 260.4 168.288 260.92 168.288 261.82C168.288 262.48 168.768 262.92 169.728 263.16L171.448 263.58C173.108 263.98 173.928 264.74 173.928 266.2C173.928 268.06 172.328 269.24 170.008 269.24C167.708 269.24 166.248 268.02 166.248 266.16ZM187.801 269.22C183.681 269.22 180.941 266.26 180.941 261.78C180.941 257.32 183.761 254.3 187.901 254.3C191.161 254.3 193.661 256.24 194.201 259.2H192.101C191.561 257.32 189.941 256.18 187.841 256.18C184.921 256.18 183.001 258.38 183.001 261.76C183.001 265.14 184.921 267.34 187.841 267.34C189.961 267.34 191.641 266.2 192.181 264.42H194.261C193.641 267.3 191.061 269.22 187.801 269.22ZM195.704 264.1C195.704 261.08 197.864 258.96 200.804 258.96C203.724 258.96 205.884 261.08 205.884 264.1C205.884 267.12 203.724 269.24 200.804 269.24C197.864 269.24 195.704 267.12 195.704 264.1ZM197.604 264.1C197.604 266.14 198.904 267.56 200.804 267.56C202.684 267.56 204.004 266.14 204.004 264.1C204.004 262.06 202.684 260.64 200.804 260.64C198.904 260.64 197.604 262.06 197.604 264.1ZM209.845 269H207.965V259.22H209.665L209.865 260.72C210.485 259.6 211.725 258.94 213.105 258.94C215.685 258.94 216.865 260.52 216.865 263.02V269H214.985V263.44C214.985 261.46 214.065 260.66 212.625 260.66C210.865 260.66 209.845 261.92 209.845 263.82V269ZM221.349 269H219.469V259.22H221.169L221.369 260.72C221.989 259.6 223.229 258.94 224.609 258.94C227.189 258.94 228.369 260.52 228.369 263.02V269H226.489V263.44C226.489 261.46 225.569 260.66 224.129 260.66C222.369 260.66 221.349 261.92 221.349 263.82V269ZM235.193 269.24C232.313 269.24 230.333 267.16 230.333 264.12C230.333 261.06 232.273 258.94 235.113 258.94C237.893 258.94 239.713 260.86 239.713 263.76V264.46L232.153 264.48C232.293 266.54 233.373 267.68 235.233 267.68C236.693 267.68 237.653 267.08 237.973 265.96H239.733C239.253 268.06 237.613 269.24 235.193 269.24ZM235.113 260.52C233.473 260.52 232.433 261.5 232.193 263.22H237.833C237.833 261.6 236.773 260.52 235.113 260.52ZM241.173 264.12C241.173 261.06 243.113 258.94 245.973 258.94C248.433 258.94 250.153 260.34 250.493 262.52H248.613C248.293 261.28 247.293 260.62 246.033 260.62C244.253 260.62 243.033 261.98 243.033 264.1C243.033 266.2 244.173 267.56 245.953 267.56C247.293 267.56 248.293 266.86 248.633 265.7H250.513C250.133 267.82 248.313 269.24 245.953 269.24C243.073 269.24 241.173 267.2 241.173 264.12ZM255.257 269H253.377V260.8H251.457V259.22H253.377V256.16H255.257V259.22H257.177V260.8H255.257V269ZM262.986 269.24C260.106 269.24 258.126 267.16 258.126 264.12C258.126 261.06 260.066 258.94 262.906 258.94C265.686 258.94 267.506 260.86 267.506 263.76V264.46L259.946 264.48C260.086 266.54 261.166 267.68 263.026 267.68C264.486 267.68 265.446 267.08 265.766 265.96H267.526C267.046 268.06 265.406 269.24 262.986 269.24ZM262.906 260.52C261.266 260.52 260.226 261.5 259.986 263.22H265.626C265.626 261.6 264.566 260.52 262.906 260.52ZM273.526 269.24C270.686 269.24 268.966 267.12 268.966 264.14C268.966 261.14 270.706 258.94 273.606 258.94C275.106 258.94 276.366 259.6 277.026 260.8V254.28H278.886V269H277.206L277.046 267.22C276.406 268.56 275.086 269.24 273.526 269.24ZM273.906 267.54C275.826 267.54 277.006 266.12 277.006 264.08C277.006 262.08 275.826 260.64 273.906 260.64C271.986 260.64 270.866 262.08 270.866 264.08C270.866 266.1 271.986 267.54 273.906 267.54Z" fill="black"/>
<path d="M48.2348 299.136L44.3788 292.64H45.2588L48.2988 297.888C48.4108 298.08 48.5068 298.256 48.6188 298.496C48.7628 298.208 48.7148 298.288 48.9388 297.888L51.9468 292.64H52.7948L49.0028 299.136V304H48.2348V299.136ZM52.1556 300.16C52.1556 297.84 53.7716 296.128 55.9636 296.128C58.1556 296.128 59.7716 297.84 59.7716 300.16C59.7716 302.48 58.1556 304.192 55.9636 304.192C53.7716 304.192 52.1556 302.48 52.1556 300.16ZM52.9076 300.16C52.9076 302.128 54.1716 303.52 55.9636 303.52C57.7556 303.52 59.0196 302.128 59.0196 300.16C59.0196 298.192 57.7556 296.8 55.9636 296.8C54.1716 296.8 52.9076 298.192 52.9076 300.16ZM66.9068 296.32H67.6428V304H67.0508L66.9068 302.576C66.4908 303.536 65.4028 304.192 64.1228 304.192C62.2828 304.192 61.3388 302.928 61.3388 301.056V296.304H62.0908V300.864C62.0908 302.832 63.0188 303.52 64.2988 303.52C65.9148 303.52 66.9068 302.4 66.9068 300.416V296.32ZM70.5714 293.264L70.3314 296.32H69.7554L69.4994 293.264C69.4674 292.832 69.7714 292.64 70.0434 292.64C70.3154 292.64 70.6034 292.832 70.5714 293.264ZM76.0988 296.208V296.848H75.5228C74.0988 296.848 73.1708 297.888 73.1708 299.328V304H72.4348V296.32H73.1228L73.1868 297.552C73.4908 296.688 74.3388 296.128 75.4268 296.128C75.6668 296.128 75.8428 296.144 76.0988 296.208ZM80.4454 304.192C78.2214 304.192 76.7494 302.592 76.7494 300.176C76.7494 297.776 78.2054 296.128 80.3494 296.128C82.3494 296.128 83.7254 297.568 83.7254 299.664V300.176H77.4854C77.5494 302.272 78.6374 303.52 80.4454 303.52C81.8054 303.52 82.6694 302.928 82.9734 301.792H83.7254C83.2774 303.376 82.1734 304.192 80.4454 304.192ZM80.3494 296.8C78.7814 296.8 77.6774 297.888 77.5014 299.568H82.9734C82.9734 297.904 81.9334 296.8 80.3494 296.8ZM90.7958 304H90.0598V296.32H90.6518L90.8118 297.808C91.3238 296.736 92.3798 296.128 93.5318 296.128C95.7078 296.128 96.5238 297.408 96.5238 299.328V304H95.7878V299.472C95.7878 297.44 94.9078 296.8 93.5158 296.8C91.7718 296.8 90.7958 298.096 90.7958 300.032V304ZM98.2806 300.16C98.2806 297.84 99.8966 296.128 102.089 296.128C104.281 296.128 105.897 297.84 105.897 300.16C105.897 302.48 104.281 304.192 102.089 304.192C99.8966 304.192 98.2806 302.48 98.2806 300.16ZM99.0326 300.16C99.0326 302.128 100.297 303.52 102.089 303.52C103.881 303.52 105.145 302.128 105.145 300.16C105.145 298.192 103.881 296.8 102.089 296.8C100.297 296.8 99.0326 298.192 99.0326 300.16ZM109.019 304L106.459 296.32H107.211L108.939 301.536C109.099 302 109.243 302.464 109.403 303.056C109.531 302.48 109.835 301.568 109.851 301.536L111.579 296.32H112.331L114.059 301.536C114.219 302 114.363 302.448 114.523 303.04C114.699 302.384 114.651 302.512 114.971 301.536L116.715 296.32H117.467L114.891 304H114.139L112.315 298.512C112.187 298.144 112.075 297.792 111.963 297.28C111.851 297.728 111.723 298.144 111.595 298.512L109.771 304H109.019ZM127.068 296.208V296.848H126.492C125.068 296.848 124.14 297.888 124.14 299.328V304H123.404V296.32H124.092L124.156 297.552C124.46 296.688 125.308 296.128 126.396 296.128C126.636 296.128 126.812 296.144 127.068 296.208ZM131.414 304.192C129.19 304.192 127.718 302.592 127.718 300.176C127.718 297.776 129.174 296.128 131.318 296.128C133.318 296.128 134.694 297.568 134.694 299.664V300.176H128.454C128.518 302.272 129.606 303.52 131.414 303.52C132.774 303.52 133.638 302.928 133.942 301.792H134.694C134.246 303.376 133.142 304.192 131.414 304.192ZM131.318 296.8C129.75 296.8 128.646 297.888 128.47 299.568H133.942C133.942 297.904 132.902 296.8 131.318 296.8ZM138.642 304.192C136.994 304.192 136.05 303.28 136.05 301.968C136.05 300.56 137.138 299.664 138.93 299.52L141.57 299.312V299.024C141.57 297.296 140.546 296.8 139.33 296.8C137.906 296.8 137.058 297.472 137.058 298.592H136.322C136.322 297.088 137.538 296.128 139.346 296.128C140.994 296.128 142.306 296.928 142.306 298.912V304H141.714L141.57 302.56C141.042 303.6 139.97 304.192 138.642 304.192ZM138.738 303.536C140.546 303.536 141.57 302.224 141.57 300.336V299.92L138.994 300.128C137.442 300.256 136.786 301.008 136.786 301.952C136.786 303.008 137.586 303.536 138.738 303.536ZM147.598 304.192C145.342 304.192 144.062 302.432 144.062 300.16C144.062 297.888 145.342 296.128 147.598 296.128C148.958 296.128 150.014 296.736 150.574 297.984V292.448H151.31V304H150.718L150.606 302.272C150.03 303.584 148.926 304.192 147.598 304.192ZM147.678 303.52C149.518 303.52 150.558 302.112 150.558 300.16C150.558 298.224 149.518 296.8 147.678 296.8C145.854 296.8 144.814 298.224 144.814 300.16C144.814 302.112 145.854 303.52 147.678 303.52ZM152.915 307.248V306.656H153.635C154.259 306.656 155.027 306.656 155.427 305.568L155.811 304.528L152.691 296.32H153.459L156.163 303.52L158.755 296.32H159.507L156.099 305.776C155.699 306.88 154.995 307.344 153.955 307.344C153.539 307.344 153.235 307.312 152.915 307.248ZM166.764 304H166.028V296.96H164.476V296.32H166.028V293.888H166.764V296.32H168.316V296.96H166.764V304ZM169.203 300.16C169.203 297.84 170.819 296.128 173.011 296.128C175.203 296.128 176.819 297.84 176.819 300.16C176.819 302.48 175.203 304.192 173.011 304.192C170.819 304.192 169.203 302.48 169.203 300.16ZM169.955 300.16C169.955 302.128 171.219 303.52 173.011 303.52C174.803 303.52 176.067 302.128 176.067 300.16C176.067 298.192 174.803 296.8 173.011 296.8C171.219 296.8 169.955 298.192 169.955 300.16ZM186.274 304.192C184.049 304.192 182.578 302.592 182.578 300.176C182.578 297.776 184.034 296.128 186.178 296.128C188.178 296.128 189.554 297.568 189.554 299.664V300.176H183.314C183.378 302.272 184.466 303.52 186.274 303.52C187.634 303.52 188.498 302.928 188.802 301.792H189.554C189.106 303.376 188.002 304.192 186.274 304.192ZM186.178 296.8C184.61 296.8 183.506 297.888 183.33 299.568H188.802C188.802 297.904 187.762 296.8 186.178 296.8ZM191.009 304H190.113L192.897 300.128L190.129 296.32H191.025L193.409 299.616L195.793 296.32H196.673L193.889 300.16L196.673 304H195.777L193.377 300.688L191.009 304ZM198.044 307.248V296.32H198.636L198.748 298.048C199.324 296.736 200.428 296.128 201.756 296.128C204.012 296.128 205.292 297.888 205.292 300.16C205.292 302.432 204.012 304.192 201.756 304.192C200.396 304.192 199.34 303.584 198.78 302.336V307.248H198.044ZM198.796 300.16C198.796 302.096 199.836 303.52 201.676 303.52C203.5 303.52 204.54 302.096 204.54 300.16C204.54 298.208 203.5 296.8 201.676 296.8C199.836 296.8 198.796 298.208 198.796 300.16ZM207.954 304H207.218V292.448H207.954V304ZM209.874 300.16C209.874 297.84 211.49 296.128 213.682 296.128C215.874 296.128 217.49 297.84 217.49 300.16C217.49 302.48 215.874 304.192 213.682 304.192C211.49 304.192 209.874 302.48 209.874 300.16ZM210.626 300.16C210.626 302.128 211.89 303.52 213.682 303.52C215.474 303.52 216.738 302.128 216.738 300.16C216.738 298.192 215.474 296.8 213.682 296.8C211.89 296.8 210.626 298.192 210.626 300.16ZM223.005 296.208V296.848H222.429C221.005 296.848 220.077 297.888 220.077 299.328V304H219.341V296.32H220.029L220.093 297.552C220.397 296.688 221.245 296.128 222.333 296.128C222.573 296.128 222.749 296.144 223.005 296.208ZM227.352 304.192C225.128 304.192 223.656 302.592 223.656 300.176C223.656 297.776 225.112 296.128 227.256 296.128C229.256 296.128 230.632 297.568 230.632 299.664V300.176H224.392C224.456 302.272 225.544 303.52 227.352 303.52C228.712 303.52 229.576 302.928 229.88 301.792H230.632C230.184 303.376 229.08 304.192 227.352 304.192ZM227.256 296.8C225.688 296.8 224.584 297.888 224.408 299.568H229.88C229.88 297.904 228.84 296.8 227.256 296.8ZM237.75 304.176C237.27 304.176 236.87 303.776 236.87 303.312C236.87 302.832 237.27 302.432 237.75 302.432C238.23 302.432 238.63 302.832 238.63 303.312C238.63 303.776 238.23 304.176 237.75 304.176ZM241.766 304H241.03V292.448H241.766V304ZM244.631 293.968C244.263 293.968 243.959 293.664 243.959 293.312C243.959 292.944 244.263 292.624 244.631 292.624C244.983 292.624 245.303 292.944 245.303 293.312C245.303 293.664 244.983 293.968 244.631 293.968ZM244.263 304V296.32H244.999V304H244.263ZM248.027 304H247.435V292.448H248.171V297.984C248.731 296.736 249.787 296.128 251.147 296.128C253.403 296.128 254.683 297.888 254.683 300.16C254.683 302.432 253.403 304.192 251.147 304.192C249.819 304.192 248.715 303.584 248.139 302.272L248.027 304ZM248.187 300.16C248.187 302.112 249.227 303.52 251.067 303.52C252.891 303.52 253.931 302.112 253.931 300.16C253.931 298.224 252.891 296.8 251.067 296.8C249.227 296.8 248.187 298.224 248.187 300.16ZM263.989 304.192C261.733 304.192 260.453 302.432 260.453 300.16C260.453 297.888 261.733 296.128 263.989 296.128C265.349 296.128 266.405 296.736 266.965 297.984V292.448H267.701V304H267.109L266.997 302.272C266.421 303.584 265.317 304.192 263.989 304.192ZM264.069 303.52C265.909 303.52 266.949 302.112 266.949 300.16C266.949 298.224 265.909 296.8 264.069 296.8C262.245 296.8 261.205 298.224 261.205 300.16C261.205 302.112 262.245 303.52 264.069 303.52ZM269.562 300.16C269.562 297.84 271.178 296.128 273.37 296.128C275.562 296.128 277.178 297.84 277.178 300.16C277.178 302.48 275.562 304.192 273.37 304.192C271.178 304.192 269.562 302.48 269.562 300.16ZM270.314 300.16C270.314 302.128 271.578 303.52 273.37 303.52C275.162 303.52 276.426 302.128 276.426 300.16C276.426 298.192 275.162 296.8 273.37 296.8C271.578 296.8 270.314 298.192 270.314 300.16ZM279.765 304H279.029V296.32H279.621L279.733 297.504C280.133 296.624 281.013 296.128 282.085 296.128C283.317 296.128 284.261 296.8 284.597 297.856C284.933 296.8 285.861 296.128 287.141 296.128C288.725 296.128 289.861 297.184 289.861 298.976V304H289.157V299.072C289.157 297.664 288.357 296.8 287.077 296.8C285.621 296.8 284.821 297.936 284.821 299.088V304H284.101V299.056C284.101 297.648 283.301 296.8 282.021 296.8C280.565 296.8 279.765 297.92 279.765 299.072V304ZM294.376 304.192C292.728 304.192 291.784 303.28 291.784 301.968C291.784 300.56 292.872 299.664 294.664 299.52L297.304 299.312V299.024C297.304 297.296 296.28 296.8 295.064 296.8C293.64 296.8 292.792 297.472 292.792 298.592H292.056C292.056 297.088 293.272 296.128 295.08 296.128C296.728 296.128 298.04 296.928 298.04 298.912V304H297.448L297.304 302.56C296.776 303.6 295.704 304.192 294.376 304.192ZM294.472 303.536C296.28 303.536 297.304 302.224 297.304 300.336V299.92L294.728 300.128C293.176 300.256 292.52 301.008 292.52 301.952C292.52 303.008 293.32 303.536 294.472 303.536ZM300.74 293.968C300.372 293.968 300.068 293.664 300.068 293.312C300.068 292.944 300.372 292.624 300.74 292.624C301.092 292.624 301.412 292.944 301.412 293.312C301.412 293.664 301.092 293.968 300.74 293.968ZM300.372 304V296.32H301.108V304H300.372ZM304.28 304H303.544V296.32H304.136L304.296 297.808C304.808 296.736 305.864 296.128 307.016 296.128C309.192 296.128 310.008 297.408 310.008 299.328V304H309.272V299.472C309.272 297.44 308.392 296.8 307 296.8C305.256 296.8 304.28 298.096 304.28 300.032V304ZM311.559 301.92H312.279C312.279 302.912 313.015 303.52 314.199 303.52C315.495 303.52 316.295 302.944 316.295 302C316.295 301.248 315.927 300.864 314.935 300.608L313.639 300.272C312.327 299.936 311.703 299.2 311.703 298.256C311.703 296.976 312.759 296.128 314.343 296.128C315.927 296.128 316.919 296.976 316.967 298.368H316.247C316.199 297.376 315.495 296.8 314.343 296.8C313.111 296.8 312.439 297.312 312.439 298.256C312.439 298.912 312.887 299.376 313.815 299.616L315.095 299.952C316.439 300.304 317.031 300.928 317.031 302C317.031 303.312 315.911 304.192 314.231 304.192C312.599 304.192 311.559 303.312 311.559 301.92ZM88.9729 326.192C86.7169 326.192 85.4369 324.432 85.4369 322.16C85.4369 319.888 86.7169 318.128 88.9729 318.128C90.3329 318.128 91.3889 318.736 91.9489 319.984V314.448H92.6849V326H92.0929L91.9809 324.272C91.4049 325.584 90.3009 326.192 88.9729 326.192ZM89.0529 325.52C90.8929 325.52 91.9329 324.112 91.9329 322.16C91.9329 320.224 90.8929 318.8 89.0529 318.8C87.2289 318.8 86.1889 320.224 86.1889 322.16C86.1889 324.112 87.2289 325.52 89.0529 325.52ZM95.4903 315.968C95.1223 315.968 94.8183 315.664 94.8183 315.312C94.8183 314.944 95.1223 314.624 95.4903 314.624C95.8423 314.624 96.1623 314.944 96.1623 315.312C96.1623 315.664 95.8423 315.968 95.4903 315.968ZM95.1223 326V318.32H95.8583V326H95.1223ZM101.958 318.208V318.848H101.382C99.9581 318.848 99.0301 319.888 99.0301 321.328V326H98.2941V318.32H98.9821L99.0461 319.552C99.3501 318.688 100.198 318.128 101.286 318.128C101.526 318.128 101.702 318.144 101.958 318.208ZM106.305 326.192C104.081 326.192 102.609 324.592 102.609 322.176C102.609 319.776 104.065 318.128 106.209 318.128C108.209 318.128 109.585 319.568 109.585 321.664V322.176H103.345C103.409 324.272 104.497 325.52 106.305 325.52C107.665 325.52 108.529 324.928 108.833 323.792H109.585C109.137 325.376 108.033 326.192 106.305 326.192ZM106.209 318.8C104.641 318.8 103.537 319.888 103.361 321.568H108.833C108.833 319.904 107.793 318.8 106.209 318.8ZM110.859 322.192C110.859 319.76 112.299 318.128 114.507 318.128C116.155 318.128 117.387 319.104 117.739 320.56H116.987C116.667 319.424 115.643 318.784 114.507 318.784C112.795 318.784 111.579 320.096 111.579 322.176C111.579 324.16 112.699 325.52 114.411 325.52C115.643 325.52 116.667 324.816 117.019 323.776H117.771C117.355 325.232 116.043 326.192 114.411 326.192C112.299 326.192 110.859 324.592 110.859 322.192ZM120.936 326H120.2V318.96H118.648V318.32H120.2V315.888H120.936V318.32H122.488V318.96H120.936V326ZM124.829 326H124.093V314.448H124.829V326ZM126.493 329.248V328.656H127.213C127.837 328.656 128.605 328.656 129.005 327.568L129.389 326.528L126.269 318.32H127.037L129.741 325.52L132.333 318.32H133.085L129.677 327.776C129.277 328.88 128.573 329.344 127.533 329.344C127.117 329.344 126.813 329.312 126.493 329.248ZM138.054 318.32H139.254V316.592C139.254 315.024 140.134 314.448 141.094 314.448C141.35 314.448 141.654 314.464 141.878 314.496V315.136H141.222C140.262 315.136 139.99 315.616 139.99 316.592V318.32H141.798V318.96H139.99V326H139.254V318.96H138.054V318.32ZM147.083 318.208V318.848H146.507C145.083 318.848 144.155 319.888 144.155 321.328V326H143.419V318.32H144.107L144.171 319.552C144.475 318.688 145.323 318.128 146.411 318.128C146.651 318.128 146.827 318.144 147.083 318.208ZM147.734 322.16C147.734 319.84 149.35 318.128 151.542 318.128C153.734 318.128 155.35 319.84 155.35 322.16C155.35 324.48 153.734 326.192 151.542 326.192C149.35 326.192 147.734 324.48 147.734 322.16ZM148.486 322.16C148.486 324.128 149.75 325.52 151.542 325.52C153.334 325.52 154.598 324.128 154.598 322.16C154.598 320.192 153.334 318.8 151.542 318.8C149.75 318.8 148.486 320.192 148.486 322.16ZM157.936 326H157.2V318.32H157.792L157.904 319.504C158.304 318.624 159.184 318.128 160.256 318.128C161.488 318.128 162.432 318.8 162.768 319.856C163.104 318.8 164.032 318.128 165.312 318.128C166.896 318.128 168.032 319.184 168.032 320.976V326H167.328V321.072C167.328 319.664 166.528 318.8 165.248 318.8C163.792 318.8 162.992 319.936 162.992 321.088V326H162.272V321.056C162.272 319.648 161.472 318.8 160.192 318.8C158.736 318.8 157.936 319.92 157.936 321.072V326ZM176.249 326H175.513V318.96H173.961V318.32H175.513V315.888H176.249V318.32H177.801V318.96H176.249V326ZM180.077 325.984H179.341V314.448H180.077V319.808C180.573 318.816 181.533 318.128 182.893 318.128C184.957 318.128 185.805 319.408 185.805 321.328V326H185.069V321.472C185.069 319.44 184.157 318.8 182.845 318.8C181.005 318.8 180.077 320.208 180.077 321.824V325.984ZM191.258 326.192C189.034 326.192 187.562 324.592 187.562 322.176C187.562 319.776 189.018 318.128 191.162 318.128C193.162 318.128 194.538 319.568 194.538 321.664V322.176H188.298C188.362 324.272 189.45 325.52 191.258 325.52C192.618 325.52 193.482 324.928 193.786 323.792H194.538C194.09 325.376 192.986 326.192 191.258 326.192ZM191.162 318.8C189.594 318.8 188.49 319.888 188.314 321.568H193.786C193.786 319.904 192.746 318.8 191.162 318.8ZM201.464 326H200.872V314.448H201.608V319.984C202.168 318.736 203.224 318.128 204.584 318.128C206.84 318.128 208.12 319.888 208.12 322.16C208.12 324.432 206.84 326.192 204.584 326.192C203.256 326.192 202.152 325.584 201.576 324.272L201.464 326ZM201.624 322.16C201.624 324.112 202.664 325.52 204.504 325.52C206.328 325.52 207.368 324.112 207.368 322.16C207.368 320.224 206.328 318.8 204.504 318.8C202.664 318.8 201.624 320.224 201.624 322.16ZM210.782 326H210.046V314.448H210.782V326ZM212.703 322.16C212.703 319.84 214.319 318.128 216.511 318.128C218.703 318.128 220.319 319.84 220.319 322.16C220.319 324.48 218.703 326.192 216.511 326.192C214.319 326.192 212.703 324.48 212.703 322.16ZM213.455 322.16C213.455 324.128 214.719 325.52 216.511 325.52C218.303 325.52 219.567 324.128 219.567 322.16C219.567 320.192 218.303 318.8 216.511 318.8C214.719 318.8 213.455 320.192 213.455 322.16ZM221.593 322.192C221.593 319.76 223.033 318.128 225.241 318.128C226.889 318.128 228.121 319.104 228.473 320.56H227.721C227.401 319.424 226.377 318.784 225.241 318.784C223.529 318.784 222.313 320.096 222.313 322.176C222.313 324.16 223.433 325.52 225.145 325.52C226.377 325.52 227.401 324.816 227.753 323.776H228.505C228.089 325.232 226.777 326.192 225.145 326.192C223.033 326.192 221.593 324.592 221.593 322.192ZM231.079 326H230.343V314.448H231.079V322.624L235.255 318.32H236.199L233.223 321.392L236.231 326H235.383L232.727 321.888L231.079 323.6V326ZM236.796 322.192C236.796 319.76 238.236 318.128 240.444 318.128C242.092 318.128 243.324 319.104 243.676 320.56H242.924C242.604 319.424 241.58 318.784 240.444 318.784C238.732 318.784 237.516 320.096 237.516 322.176C237.516 324.16 238.636 325.52 240.348 325.52C241.58 325.52 242.604 324.816 242.956 323.776H243.708C243.292 325.232 241.98 326.192 240.348 326.192C238.236 326.192 236.796 324.592 236.796 322.192ZM246.218 325.984H245.482V314.448H246.218V319.808C246.714 318.816 247.674 318.128 249.034 318.128C251.098 318.128 251.946 319.408 251.946 321.328V326H251.21V321.472C251.21 319.44 250.298 318.8 248.986 318.8C247.146 318.8 246.218 320.208 246.218 321.824V325.984ZM256.455 326.192C254.807 326.192 253.863 325.28 253.863 323.968C253.863 322.56 254.951 321.664 256.743 321.52L259.383 321.312V321.024C259.383 319.296 258.359 318.8 257.143 318.8C255.719 318.8 254.871 319.472 254.871 320.592H254.135C254.135 319.088 255.351 318.128 257.159 318.128C258.807 318.128 260.119 318.928 260.119 320.912V326H259.527L259.383 324.56C258.855 325.6 257.783 326.192 256.455 326.192ZM256.551 325.536C258.359 325.536 259.383 324.224 259.383 322.336V321.92L256.807 322.128C255.255 322.256 254.599 323.008 254.599 323.952C254.599 325.008 255.399 325.536 256.551 325.536ZM262.818 315.968C262.45 315.968 262.146 315.664 262.146 315.312C262.146 314.944 262.45 314.624 262.818 314.624C263.17 314.624 263.49 314.944 263.49 315.312C263.49 315.664 263.17 315.968 262.818 315.968ZM262.45 326V318.32H263.186V326H262.45ZM266.358 326H265.622V318.32H266.214L266.374 319.808C266.886 318.736 267.942 318.128 269.094 318.128C271.27 318.128 272.086 319.408 272.086 321.328V326H271.35V321.472C271.35 319.44 270.47 318.8 269.078 318.8C267.334 318.8 266.358 320.096 266.358 322.032V326ZM275.203 326.176C274.723 326.176 274.323 325.776 274.323 325.312C274.323 324.832 274.723 324.432 275.203 324.432C275.683 324.432 276.083 324.832 276.083 325.312C276.083 325.776 275.683 326.176 275.203 326.176Z" fill="black" fill-opacity="0.6"/>
<rect x="78" y="461" width="207" height="39" rx="6" fill="#FF9902"/>
<rect x="16.5" y="379.5" width="330" height="53" rx="6.5" fill="#FF9902" fill-opacity="0.5" stroke="black"/>
<path d="M34.0459 413H30.8619V401.64H34.0459C37.4859 401.64 39.7739 403.912 39.7739 407.32C39.7739 410.728 37.4859 413 34.0459 413ZM34.0459 402.344H31.6299V412.296H34.0459C37.0379 412.296 38.9899 410.344 38.9899 407.32C38.9899 404.28 37.0699 402.344 34.0459 402.344ZM41.14 409.16C41.14 406.84 42.756 405.128 44.948 405.128C47.14 405.128 48.756 406.84 48.756 409.16C48.756 411.48 47.14 413.192 44.948 413.192C42.756 413.192 41.14 411.48 41.14 409.16ZM41.892 409.16C41.892 411.128 43.156 412.52 44.948 412.52C46.74 412.52 48.004 411.128 48.004 409.16C48.004 407.192 46.74 405.8 44.948 405.8C43.156 405.8 41.892 407.192 41.892 409.16ZM51.3426 413H50.6066V405.32H51.1986L51.3106 406.504C51.7106 405.624 52.5906 405.128 53.6626 405.128C54.8946 405.128 55.8386 405.8 56.1746 406.856C56.5106 405.8 57.4386 405.128 58.7186 405.128C60.3026 405.128 61.4386 406.184 61.4386 407.976V413H60.7346V408.072C60.7346 406.664 59.9346 405.8 58.6546 405.8C57.1986 405.8 56.3986 406.936 56.3986 408.088V413H55.6786V408.056C55.6786 406.648 54.8786 405.8 53.5986 405.8C52.1426 405.8 51.3426 406.92 51.3426 408.072V413ZM65.9545 413.192C64.3065 413.192 63.3625 412.28 63.3625 410.968C63.3625 409.56 64.4505 408.664 66.2425 408.52L68.8825 408.312V408.024C68.8825 406.296 67.8585 405.8 66.6425 405.8C65.2185 405.8 64.3705 406.472 64.3705 407.592H63.6345C63.6345 406.088 64.8505 405.128 66.6585 405.128C68.3065 405.128 69.6185 405.928 69.6185 407.912V413H69.0265L68.8825 411.56C68.3545 412.6 67.2825 413.192 65.9545 413.192ZM66.0505 412.536C67.8585 412.536 68.8825 411.224 68.8825 409.336V408.92L66.3065 409.128C64.7545 409.256 64.0985 410.008 64.0985 410.952C64.0985 412.008 64.8985 412.536 66.0505 412.536ZM72.3184 402.968C71.9504 402.968 71.6464 402.664 71.6464 402.312C71.6464 401.944 71.9504 401.624 72.3184 401.624C72.6704 401.624 72.9904 401.944 72.9904 402.312C72.9904 402.664 72.6704 402.968 72.3184 402.968ZM71.9504 413V405.32H72.6864V413H71.9504ZM75.8583 413H75.1223V405.32H75.7143L75.8743 406.808C76.3863 405.736 77.4423 405.128 78.5943 405.128C80.7703 405.128 81.5863 406.408 81.5863 408.328V413H80.8503V408.472C80.8503 406.44 79.9703 405.8 78.5783 405.8C76.8343 405.8 75.8583 407.096 75.8583 409.032V413ZM85.5831 412.536C85.5831 413.384 84.8951 414.152 84.0471 414.296V413.784C84.5431 413.688 84.9271 413.288 84.9271 412.888C84.8471 412.952 84.7191 413 84.5111 413C84.1591 413 83.8231 412.744 83.8231 412.248C83.8231 411.784 84.1591 411.432 84.6551 411.432C85.1191 411.432 85.5831 411.816 85.5831 412.536ZM91.8275 409.192C91.8275 406.76 93.2675 405.128 95.4755 405.128C97.1235 405.128 98.3555 406.104 98.7075 407.56H97.9555C97.6355 406.424 96.6115 405.784 95.4755 405.784C93.7635 405.784 92.5475 407.096 92.5475 409.176C92.5475 411.16 93.6675 412.52 95.3795 412.52C96.6115 412.52 97.6355 411.816 97.9875 410.776H98.7395C98.3235 412.232 97.0115 413.192 95.3795 413.192C93.2675 413.192 91.8275 411.592 91.8275 409.192ZM99.9369 409.16C99.9369 406.84 101.553 405.128 103.745 405.128C105.937 405.128 107.553 406.84 107.553 409.16C107.553 411.48 105.937 413.192 103.745 413.192C101.553 413.192 99.9369 411.48 99.9369 409.16ZM100.689 409.16C100.689 411.128 101.953 412.52 103.745 412.52C105.537 412.52 106.801 411.128 106.801 409.16C106.801 407.192 105.537 405.8 103.745 405.8C101.953 405.8 100.689 407.192 100.689 409.16ZM110.14 413H109.404V405.32H109.996L110.156 406.808C110.668 405.736 111.724 405.128 112.876 405.128C115.052 405.128 115.868 406.408 115.868 408.328V413H115.132V408.472C115.132 406.44 114.252 405.8 112.86 405.8C111.116 405.8 110.14 407.096 110.14 409.032V413ZM119.592 413H118.856V405.96H117.304V405.32H118.856V402.888H119.592V405.32H121.144V405.96H119.592V413ZM126.349 405.208V405.848H125.773C124.349 405.848 123.421 406.888 123.421 408.328V413H122.685V405.32H123.373L123.437 406.552C123.741 405.688 124.589 405.128 125.677 405.128C125.917 405.128 126.093 405.144 126.349 405.208ZM129.751 413.192C128.103 413.192 127.159 412.28 127.159 410.968C127.159 409.56 128.247 408.664 130.039 408.52L132.679 408.312V408.024C132.679 406.296 131.655 405.8 130.439 405.8C129.015 405.8 128.167 406.472 128.167 407.592H127.431C127.431 406.088 128.647 405.128 130.455 405.128C132.103 405.128 133.415 405.928 133.415 407.912V413H132.823L132.679 411.56C132.151 412.6 131.079 413.192 129.751 413.192ZM129.847 412.536C131.655 412.536 132.679 411.224 132.679 409.336V408.92L130.103 409.128C128.551 409.256 127.895 410.008 127.895 410.952C127.895 412.008 128.695 412.536 129.847 412.536ZM135.171 409.192C135.171 406.76 136.611 405.128 138.819 405.128C140.467 405.128 141.699 406.104 142.051 407.56H141.299C140.979 406.424 139.955 405.784 138.819 405.784C137.107 405.784 135.891 407.096 135.891 409.176C135.891 411.16 137.011 412.52 138.723 412.52C139.955 412.52 140.979 411.816 141.331 410.776H142.083C141.667 412.232 140.355 413.192 138.723 413.192C136.611 413.192 135.171 411.592 135.171 409.192ZM145.249 413H144.513V405.96H142.961V405.32H144.513V402.888H145.249V405.32H146.801V405.96H145.249V413ZM155.001 413.192C153.353 413.192 152.409 412.28 152.409 410.968C152.409 409.56 153.497 408.664 155.289 408.52L157.929 408.312V408.024C157.929 406.296 156.905 405.8 155.689 405.8C154.265 405.8 153.417 406.472 153.417 407.592H152.681C152.681 406.088 153.897 405.128 155.705 405.128C157.353 405.128 158.665 405.928 158.665 407.912V413H158.073L157.929 411.56C157.401 412.6 156.329 413.192 155.001 413.192ZM155.097 412.536C156.905 412.536 157.929 411.224 157.929 409.336V408.92L155.353 409.128C153.801 409.256 153.145 410.008 153.145 410.952C153.145 412.008 153.945 412.536 155.097 412.536ZM163.957 413.192C161.701 413.192 160.421 411.432 160.421 409.16C160.421 406.888 161.701 405.128 163.957 405.128C165.317 405.128 166.373 405.736 166.933 406.984V401.448H167.669V413H167.077L166.965 411.272C166.389 412.584 165.285 413.192 163.957 413.192ZM164.037 412.52C165.877 412.52 166.917 411.112 166.917 409.16C166.917 407.224 165.877 405.8 164.037 405.8C162.213 405.8 161.173 407.224 161.173 409.16C161.173 411.112 162.213 412.52 164.037 412.52ZM173.067 413.192C170.811 413.192 169.531 411.432 169.531 409.16C169.531 406.888 170.811 405.128 173.067 405.128C174.427 405.128 175.483 405.736 176.043 406.984V401.448H176.779V413H176.187L176.075 411.272C175.499 412.584 174.395 413.192 173.067 413.192ZM173.147 412.52C174.987 412.52 176.027 411.112 176.027 409.16C176.027 407.224 174.987 405.8 173.147 405.8C171.323 405.8 170.283 407.224 170.283 409.16C170.283 411.112 171.323 412.52 173.147 412.52ZM182.88 405.208V405.848H182.304C180.88 405.848 179.952 406.888 179.952 408.328V413H179.216V405.32H179.904L179.968 406.552C180.272 405.688 181.12 405.128 182.208 405.128C182.448 405.128 182.624 405.144 182.88 405.208ZM187.227 413.192C185.003 413.192 183.531 411.592 183.531 409.176C183.531 406.776 184.987 405.128 187.131 405.128C189.131 405.128 190.507 406.568 190.507 408.664V409.176H184.267C184.331 411.272 185.419 412.52 187.227 412.52C188.587 412.52 189.451 411.928 189.755 410.792H190.507C190.059 412.376 188.955 413.192 187.227 413.192ZM187.131 405.8C185.563 405.8 184.459 406.888 184.283 408.568H189.755C189.755 406.904 188.715 405.8 187.131 405.8ZM191.669 410.92H192.389C192.389 411.912 193.125 412.52 194.309 412.52C195.605 412.52 196.405 411.944 196.405 411C196.405 410.248 196.037 409.864 195.045 409.608L193.749 409.272C192.437 408.936 191.813 408.2 191.813 407.256C191.813 405.976 192.869 405.128 194.453 405.128C196.037 405.128 197.029 405.976 197.077 407.368H196.357C196.309 406.376 195.605 405.8 194.453 405.8C193.221 405.8 192.549 406.312 192.549 407.256C192.549 407.912 192.997 408.376 193.925 408.616L195.205 408.952C196.549 409.304 197.141 409.928 197.141 411C197.141 412.312 196.021 413.192 194.341 413.192C192.709 413.192 191.669 412.312 191.669 410.92ZM198.419 410.92H199.139C199.139 411.912 199.875 412.52 201.059 412.52C202.355 412.52 203.155 411.944 203.155 411C203.155 410.248 202.787 409.864 201.795 409.608L200.499 409.272C199.187 408.936 198.563 408.2 198.563 407.256C198.563 405.976 199.619 405.128 201.203 405.128C202.787 405.128 203.779 405.976 203.827 407.368H203.107C203.059 406.376 202.355 405.8 201.203 405.8C199.971 405.8 199.299 406.312 199.299 407.256C199.299 407.912 199.747 408.376 200.675 408.616L201.955 408.952C203.299 409.304 203.891 409.928 203.891 411C203.891 412.312 202.771 413.192 201.091 413.192C199.459 413.192 198.419 412.312 198.419 410.92ZM209.765 409.16C209.765 406.84 211.381 405.128 213.573 405.128C215.765 405.128 217.381 406.84 217.381 409.16C217.381 411.48 215.765 413.192 213.573 413.192C211.381 413.192 209.765 411.48 209.765 409.16ZM210.517 409.16C210.517 411.128 211.781 412.52 213.573 412.52C215.365 412.52 216.629 411.128 216.629 409.16C216.629 407.192 215.365 405.8 213.573 405.8C211.781 405.8 210.517 407.192 210.517 409.16ZM222.896 405.208V405.848H222.32C220.896 405.848 219.968 406.888 219.968 408.328V413H219.232V405.32H219.92L219.984 406.552C220.288 405.688 221.136 405.128 222.224 405.128C222.464 405.128 222.64 405.144 222.896 405.208ZM234.204 413H233.468V401.448H234.204V409.624L238.38 405.32H239.324L236.348 408.392L239.356 413H238.508L235.852 408.888L234.204 410.6V413ZM243.617 413.192C241.393 413.192 239.921 411.592 239.921 409.176C239.921 406.776 241.377 405.128 243.521 405.128C245.521 405.128 246.897 406.568 246.897 408.664V409.176H240.657C240.721 411.272 241.809 412.52 243.617 412.52C244.977 412.52 245.841 411.928 246.145 410.792H246.897C246.449 412.376 245.345 413.192 243.617 413.192ZM243.521 405.8C241.953 405.8 240.849 406.888 240.673 408.568H246.145C246.145 406.904 245.105 405.8 243.521 405.8ZM247.759 416.248V415.656H248.479C249.103 415.656 249.871 415.656 250.271 414.568L250.655 413.528L247.535 405.32H248.303L251.007 412.52L253.599 405.32H254.351L250.943 414.776C250.543 415.88 249.839 416.344 248.799 416.344C248.383 416.344 248.079 416.312 247.759 416.248ZM257.316 413L254.756 405.32H255.508L257.236 410.536C257.396 411 257.54 411.464 257.7 412.056C257.828 411.48 258.132 410.568 258.148 410.536L259.876 405.32H260.628L262.356 410.536C262.516 411 262.66 411.448 262.82 412.04C262.996 411.384 262.948 411.512 263.268 410.536L265.012 405.32H265.764L263.188 413H262.436L260.612 407.512C260.484 407.144 260.372 406.792 260.26 406.28C260.148 406.728 260.02 407.144 259.892 407.512L258.068 413H257.316ZM266.328 409.16C266.328 406.84 267.944 405.128 270.136 405.128C272.328 405.128 273.944 406.84 273.944 409.16C273.944 411.48 272.328 413.192 270.136 413.192C267.944 413.192 266.328 411.48 266.328 409.16ZM267.08 409.16C267.08 411.128 268.344 412.52 270.136 412.52C271.928 412.52 273.192 411.128 273.192 409.16C273.192 407.192 271.928 405.8 270.136 405.8C268.344 405.8 267.08 407.192 267.08 409.16ZM279.458 405.208V405.848H278.882C277.458 405.848 276.53 406.888 276.53 408.328V413H275.794V405.32H276.482L276.546 406.552C276.85 405.688 277.698 405.128 278.786 405.128C279.026 405.128 279.202 405.144 279.458 405.208ZM283.645 413.192C281.389 413.192 280.109 411.432 280.109 409.16C280.109 406.888 281.389 405.128 283.645 405.128C285.005 405.128 286.061 405.736 286.621 406.984V401.448H287.357V413H286.765L286.653 411.272C286.077 412.584 284.973 413.192 283.645 413.192ZM283.725 412.52C285.565 412.52 286.605 411.112 286.605 409.16C286.605 407.224 285.565 405.8 283.725 405.8C281.901 405.8 280.861 407.224 280.861 409.16C280.861 411.112 281.901 412.52 283.725 412.52Z" fill="black" fill-opacity="0.4"/>
<circle cx="316.667" cy="404.667" r="8" stroke="#222222"/>
<path d="M328.667 416.667L324.667 412.667" stroke="#222222" stroke-linecap="round"/>
<g filter="url(#filter1_d_16_369)">
<circle cx="181.5" cy="158.5" r="66.5" fill="#FF7200"/>
<circle cx="181.5" cy="158.5" r="66" stroke="black"/>
</g>
<rect width="65" height="65" transform="translate(149 126)" fill="#FF7200"/>
<path d="M166.179 143.179C163.149 146.209 161.086 150.07 160.25 154.273C159.414 158.476 159.843 162.832 161.483 166.791C163.123 170.75 165.9 174.134 169.463 176.515C173.026 178.896 177.215 180.167 181.5 180.167C185.785 180.167 189.974 178.896 193.537 176.515C197.1 174.134 199.878 170.75 201.517 166.791C203.157 162.832 203.586 158.476 202.75 154.273C201.914 150.07 199.851 146.209 196.821 143.179" stroke="white" stroke-width="7.33333" stroke-linecap="round"/>
<path d="M181.5 147.667L181.5 136.833" stroke="white" stroke-width="7.33333" stroke-linecap="round"/>
</g>
</g>
<defs>
<filter id="filter0_d_16_369" x="111" y="110" width="141" height="141" filterUnits="userSpaceOnUse" color-interpolation-filters="sRGB">
<feFlood flood-opacity="0" result="BackgroundImageFix"/>
<feColorMatrix in="SourceAlpha" type="matrix" values="0 0 0 0 0 0 0 0 0 0 0 0 0 0 0 0 0 0 127 0" result="hardAlpha"/>
<feOffset dy="4"/>
<feGaussianBlur stdDeviation="2"/>
<feComposite in2="hardAlpha" operator="out"/>
<feColorMatrix type="matrix" values="0 0 0 0 0 0 0 0 0 0 0 0 0 0 0 0 0 0 0.25 0"/>
<feBlend mode="normal" in2="BackgroundImageFix" result="effect1_dropShadow_16_369"/>
<feBlend mode="normal" in="SourceGraphic" in2="effect1_dropShadow_16_369" result="shape"/>
</filter>
<filter id="filter1_d_16_369" x="111" y="92" width="141" height="141" filterUnits="userSpaceOnUse" color-interpolation-filters="sRGB">
<feFlood flood-opacity="0" result="BackgroundImageFix"/>
<feColorMatrix in="SourceAlpha" type="matrix" values="0 0 0 0 0 0 0 0 0 0 0 0 0 0 0 0 0 0 127 0" result="hardAlpha"/>
<feOffset dy="4"/>
<feGaussianBlur stdDeviation="2"/>
<feComposite in2="hardAlpha" operator="out"/>
<feColorMatrix type="matrix" values="0 0 0 0 0 0 0 0 0 0 0 0 0 0 0 0 0 0 0.25 0"/>
<feBlend mode="normal" in2="BackgroundImageFix" result="effect1_dropShadow_16_369"/>
<feBlend mode="normal" in="SourceGraphic" in2="effect1_dropShadow_16_369" result="shape"/>
</filter>
<clipPath id="clip0_16_369">
<rect width="363" height="470" fill="white"/>
</clipPath>
<clipPath id="clip1_16_369">
<rect width="363" height="604" fill="white"/>
</clipPath>
</defs>
</svg>
