<svg width="30" height="30" viewBox="0 0 30 30" fill="none" xmlns="http://www.w3.org/2000/svg">
<path d="M14.9083 0.00265648C14.9083 0.00265648 23.7183 -0.392695 28.3892 8.4627H14.1587C14.1587 8.4627 11.4731 8.37615 9.179 11.6342C8.52001 13.0016 7.81165 14.4103 8.60656 17.1864C7.46145 15.2464 2.52716 6.65462 2.52716 6.65462C2.52716 6.65462 6.00754 0.352741 14.9082 0.00265648H14.9083Z" fill="#EF3F36"/>
<path d="M27.9319 22.4833C27.9319 22.4833 23.8666 30.3131 13.8662 29.9259C15.1019 27.7882 20.9835 17.6024 20.9835 17.6024C20.9835 17.6024 22.4045 15.3206 20.7281 11.7043C19.8754 10.4481 19.0064 9.13419 16.2057 8.4339C18.4587 8.41343 28.3645 8.4339 28.3645 8.4339C28.3645 8.4339 32.0754 14.5999 27.9319 22.4833Z" fill="#FCD900"/>
<path d="M1.94643 22.5448C1.94643 22.5448 -2.80258 15.1103 2.53536 6.64209C3.76691 8.77979 9.64852 18.9656 9.64852 18.9656C9.64852 18.9656 10.9172 21.338 14.8835 21.6921C16.3952 21.581 17.9686 21.4862 19.9787 19.4145C18.8705 21.3751 13.899 29.9422 13.899 29.9422C13.899 29.9422 6.69941 30.074 1.94631 22.5448H1.94643Z" fill="#61BC5B"/>
<path d="M13.8622 29.9999L15.8639 21.647C15.8639 21.647 18.0633 21.4739 19.9086 19.4517C18.7635 21.4658 13.8622 29.9999 13.8622 29.9999Z" fill="#5AB055"/>
<path d="M8.20288 15.0939C8.20288 11.4117 11.1891 8.42554 14.8712 8.42554C18.5534 8.42554 21.5395 11.4117 21.5395 15.0939C21.5395 18.7761 18.5534 21.7622 14.8712 21.7622C11.1891 21.7581 8.20288 18.7761 8.20288 15.0939Z" fill="white"/>
<path d="M9.31903 15.0941C9.31903 12.0298 11.8027 9.54199 14.8713 9.54199C17.9356 9.54199 20.4234 12.0257 20.4234 15.0941C20.4234 18.1585 17.9398 20.6463 14.8713 20.6463C11.8068 20.6463 9.31903 18.1585 9.31903 15.0941Z" fill="url(#paint0_linear_27_845)"/>
<path d="M28.3603 8.43813L20.1186 10.8559C20.1186 10.8559 18.8747 9.03115 16.2017 8.43813C18.5205 8.42573 28.3603 8.43813 28.3603 8.43813Z" fill="#EACA05"/>
<path d="M8.44597 16.8815C7.28845 14.8756 2.52716 6.65454 2.52716 6.65454L8.63124 12.6927C8.63124 12.6927 8.00511 13.9819 8.23999 15.827L8.44585 16.8815H8.44597Z" fill="#DF3A32"/>
<defs>
<linearGradient id="paint0_linear_27_845" x1="14.871" y1="9.62039" x2="14.871" y2="20.3121" gradientUnits="userSpaceOnUse">
<stop stop-color="#86BBE5"/>
<stop offset="1" stop-color="#1072BA"/>
</linearGradient>
</defs>
</svg>
