<svg width="27" height="27" viewBox="0 0 27 27" fill="none" xmlns="http://www.w3.org/2000/svg">
<path d="M13.2699 8.39598C12.6843 8.39598 12.2052 7.91684 12.2052 7.33123L12.2052 3.0722C12.2052 2.48659 12.6843 2.00745 13.2699 2.00745C13.8555 2.00745 14.3347 2.48659 14.3347 3.0722L14.3347 7.33123C14.3347 7.91684 13.8555 8.39598 13.2699 8.39598ZM13.2699 25.4321C12.6843 25.4321 12.2052 24.9529 12.2052 24.3673L12.2052 20.1083C12.2052 19.5227 12.6843 19.0435 13.2699 19.0435C13.8555 19.0435 14.3347 19.5227 14.3347 20.1083L14.3347 24.3673C14.3347 24.9529 13.8555 25.4321 13.2699 25.4321ZM23.9175 14.7845L19.6585 14.7845C19.0728 14.7845 18.5937 14.3054 18.5937 13.7198C18.5937 13.1341 19.0728 12.655 19.6585 12.655L23.9175 12.655C24.5031 12.655 24.9822 13.1341 24.9822 13.7198C24.9822 14.3054 24.5031 14.7845 23.9175 14.7845ZM6.8814 14.7845L2.62237 14.7845C2.03676 14.7845 1.55762 14.3054 1.55762 13.7198C1.55762 13.1341 2.03676 12.655 2.62237 12.655L6.8814 12.655C7.46701 12.655 7.94615 13.1341 7.94615 13.7198C7.94615 14.3054 7.46701 14.7845 6.8814 14.7845ZM20.7978 22.3123C20.5209 22.3123 20.2547 22.2059 20.0418 22.0036L17.0285 18.9903C16.9299 18.8917 16.8517 18.7747 16.7984 18.6459C16.745 18.5171 16.7176 18.3791 16.7176 18.2396C16.7176 18.1002 16.745 17.9622 16.7984 17.8334C16.8517 17.7046 16.9299 17.5876 17.0285 17.489C17.1271 17.3904 17.2441 17.3122 17.3729 17.2589C17.5017 17.2055 17.6398 17.1781 17.7792 17.1781C17.9186 17.1781 18.0566 17.2055 18.1854 17.2589C18.3142 17.3122 18.4312 17.3904 18.5298 17.489L21.5431 20.5023C21.6917 20.6509 21.7927 20.8404 21.8334 21.0467C21.874 21.2529 21.8525 21.4666 21.7715 21.6606C21.6905 21.8545 21.5537 22.0201 21.3784 22.1361C21.2031 22.2521 20.9973 22.3135 20.7871 22.3123H20.7978ZM8.75537 10.27C8.47853 10.27 8.21234 10.1635 7.99939 9.96117L4.98613 6.94791C4.88755 6.84934 4.80936 6.73231 4.75601 6.60351C4.70266 6.47471 4.6752 6.33667 4.6752 6.19726C4.6752 6.05785 4.70266 5.91981 4.75601 5.79101C4.80936 5.66221 4.88755 5.54518 4.98613 5.44661C5.08471 5.34803 5.20174 5.26983 5.33053 5.21649C5.45933 5.16314 5.59737 5.13568 5.73678 5.13568C5.87619 5.13568 6.01424 5.16314 6.14303 5.21649C6.27183 5.26983 6.38886 5.34803 6.48744 5.44661L9.5007 8.45987C9.64928 8.60856 9.75032 8.79806 9.79099 9.00429C9.83166 9.21053 9.81012 9.4242 9.72911 9.61817C9.6481 9.81214 9.51127 9.97766 9.336 10.0937C9.16073 10.2098 8.95492 10.2711 8.74472 10.27H8.75537ZM5.74211 22.3123C5.46527 22.3123 5.19908 22.2059 4.98613 22.0036C4.88742 21.9051 4.80911 21.7881 4.75568 21.6592C4.70225 21.5304 4.67475 21.3924 4.67475 21.2529C4.67475 21.1135 4.70225 20.9754 4.75568 20.8466C4.80911 20.7178 4.88742 20.6008 4.98613 20.5023L7.99939 17.489C8.09797 17.3904 8.215 17.3122 8.34379 17.2589C8.47259 17.2055 8.61063 17.1781 8.75004 17.1781C8.88945 17.1781 9.0275 17.2055 9.15629 17.2589C9.28509 17.3122 9.40212 17.3904 9.5007 17.489C9.59927 17.5876 9.67747 17.7046 9.73082 17.8334C9.78417 17.9622 9.81163 18.1002 9.81163 18.2396C9.81163 18.3791 9.78417 18.5171 9.73082 18.6459C9.67747 18.7747 9.59927 18.8917 9.5007 18.9903L6.48744 22.0036C6.27449 22.2165 6.0083 22.3123 5.73146 22.3123H5.74211ZM17.7845 10.27C17.5077 10.27 17.2415 10.1635 17.0285 9.96117C16.9298 9.86267 16.8515 9.74566 16.7981 9.61686C16.7446 9.48805 16.7171 9.34997 16.7171 9.21052C16.7171 9.07107 16.7446 8.93299 16.7981 8.80418C16.8515 8.67538 16.9298 8.55837 17.0285 8.45987L20.0418 5.44661C20.1404 5.34803 20.2574 5.26983 20.3862 5.21649C20.515 5.16314 20.653 5.13568 20.7924 5.13568C20.9318 5.13568 21.0699 5.16314 21.1987 5.21649C21.3275 5.26983 21.4445 5.34803 21.5431 5.44661C21.6417 5.54518 21.7199 5.66221 21.7732 5.79101C21.8266 5.91981 21.854 6.05785 21.854 6.19726C21.854 6.33667 21.8266 6.47471 21.7732 6.60351C21.7199 6.73231 21.6417 6.84934 21.5431 6.94791L18.5298 9.96117C18.3169 10.1741 18.0507 10.27 17.7738 10.27H17.7845Z" fill="#F76B05"/>
</svg>
