<svg width="299" height="78" viewBox="0 0 299 78" fill="none" xmlns="http://www.w3.org/2000/svg">
<rect x="18.4446" y="14" width="37.1856" height="15.3377" rx="2" fill="#FF7200"/>
<rect x="18.4446" y="72.2035" width="37.1856" height="5.38921" rx="2" fill="#FF7200"/>
<rect x="0.121307" y="46.2036" width="37.1856" height="8.08382" rx="2" transform="rotate(-60 0.121307 46.2036)" fill="#FF7200"/>
<rect x="48.6242" y="73.6886" width="37.1856" height="8.08382" rx="2" transform="rotate(-60 48.6242 73.6886)" fill="#FF7200"/>
<rect x="60.7499" y="53.8731" width="37.1856" height="15.3389" rx="2" transform="rotate(-120 60.7499 53.8731)" fill="#FF7200"/>
<rect x="18.7141" y="78" width="37.4281" height="5.38921" rx="2" transform="rotate(-120 18.7141 78)" fill="#FF7200"/>
<path d="M95.5579 29.48V57.8H109.574V65H87.7819V29.48H95.5579ZM117.19 37.256C114.838 37.256 112.966 35.384 112.966 33.032C112.966 30.68 114.838 28.856 117.19 28.856C119.494 28.856 121.366 30.68 121.366 33.032C121.366 35.384 119.494 37.256 117.19 37.256ZM113.542 65V41H120.934V65H113.542ZM133.439 65H126.479V28.808H133.871V43.784C135.311 41.624 138.479 40.184 141.935 40.184C148.655 40.184 152.927 45.416 152.927 53.24C152.927 60.68 148.175 65.624 141.359 65.624C137.999 65.624 135.119 64.136 133.823 61.928L133.439 65ZM133.919 52.856C133.919 56.456 136.319 58.856 139.775 58.856C143.279 58.856 145.487 56.408 145.487 52.856C145.487 49.304 143.279 46.856 139.775 46.856C136.319 46.856 133.919 49.256 133.919 52.856ZM168.318 65.624C161.07 65.624 155.886 60.344 155.886 52.952C155.886 45.464 160.926 40.232 168.174 40.232C175.71 40.232 180.414 45.176 180.414 53V54.872L162.99 54.968C163.422 58.136 165.198 59.624 168.462 59.624C171.246 59.624 173.214 58.616 173.742 56.888H180.51C179.646 62.216 174.894 65.624 168.318 65.624ZM168.222 46.232C165.294 46.232 163.662 47.528 163.086 50.408H173.07C173.07 47.864 171.198 46.232 168.222 46.232ZM201.304 41V47.96H198.952C194.728 47.96 192.184 49.832 192.184 54.584V65H184.792V41.048H191.752L192.136 44.6C193.144 42.248 195.256 40.664 198.472 40.664C199.336 40.664 200.296 40.76 201.304 41ZM220.978 41H228.37V65H221.41L220.93 62.312C219.442 64.28 216.466 65.624 213.586 65.624C208.114 65.624 204.754 61.976 204.754 56.072V41H212.146V53.384C212.146 57.32 213.49 59.048 216.514 59.048C219.682 59.048 220.978 57.416 220.978 53.48V41ZM241.309 65H233.917V41H240.829L241.309 43.496C242.509 41.816 244.861 40.232 248.317 40.232C251.917 40.232 254.221 41.912 255.613 44.456C256.861 41.912 259.693 40.232 263.149 40.232C269.341 40.232 272.413 43.832 272.413 49.304V65H265.021V51.368C265.021 48.344 263.437 46.904 261.085 46.904C258.973 46.904 256.861 48.056 256.861 52.136V65H249.469V51.368C249.469 48.392 247.933 46.952 245.581 46.952C243.469 46.952 241.309 48.104 241.309 52.136V65Z" fill="white"/>
<path d="M266.802 15.87V14.69H272.362V15.87H270.222V22H268.942V15.87H266.802ZM274.58 22H273.34V14.69H274.58L276.94 20.51L279.3 14.69H280.56V22H279.32V19.75C279.32 18.28 279.32 17.85 279.39 17.33L277.53 22H276.35L274.5 17.34C274.57 17.78 274.58 18.47 274.58 19.38V22Z" fill="white"/>
</svg>
