<svg width="32" height="32" viewBox="0 0 32 32" fill="none" xmlns="http://www.w3.org/2000/svg">
<path fill-rule="evenodd" clip-rule="evenodd" d="M0.193453 15.5107C-0.0265843 15.7857 -0.0685796 16.179 0.117553 16.5029L7.61881 29.5554C7.62516 29.5665 7.63172 29.5774 7.63847 29.588C7.79358 29.8355 8.06798 30 8.38061 30H23.6767C23.8457 30 24.0034 29.952 24.1373 29.8688C24.2587 29.7945 24.3638 29.6895 24.4398 29.5572L31.8669 16.618C31.9094 16.5494 31.9422 16.4755 31.9646 16.3986C31.9886 16.3166 32.0002 16.2328 32 16.1495C31.9996 15.9853 31.9535 15.8237 31.8668 15.6841L24.2742 2.51787C24.1352 2.21621 23.8312 2.00694 23.4785 2.00694L8.57438 2.00694C8.29931 1.97195 8.01876 2.07035 7.82543 2.27719C7.76098 2.34452 7.70709 2.42214 7.66645 2.50734L0.193453 15.5107ZM3.29066 17.2796L9.23765 27.6277H21.382L26.1924 19.2292C26.1624 19.1924 26.1955 19.2091 26.1711 19.1666L20.1896 8.75849H8.18772L3.29066 17.2796Z" fill="#FF7200"/>
</svg>
