<svg width="36" height="36" viewBox="0 0 36 36" fill="none" xmlns="http://www.w3.org/2000/svg">
<path d="M29.25 22.9719V8.97812C29.25 8.64359 28.898 8.42602 28.5988 8.57562L23.4066 11.1717C23.3059 11.2221 23.1899 11.2328 23.0817 11.2019L12.9183 8.29809C12.8101 8.26716 12.6941 8.27793 12.5934 8.32828L6.99875 11.1256C6.8463 11.2018 6.75 11.3577 6.75 11.5281V25.5219C6.75 25.8564 7.10204 26.074 7.40125 25.9244L12.5934 23.3283C12.6941 23.2779 12.8101 23.2672 12.9183 23.2981L23.0817 26.2019C23.1899 26.2328 23.3059 26.2221 23.4066 26.1717L29.0012 23.3744C29.1537 23.2982 29.25 23.1423 29.25 22.9719Z" stroke="#222222"/>
<path d="M23.25 26.25V11.25" stroke="#222222"/>
<path d="M12.75 23.25V8.25" stroke="#222222"/>
</svg>
