<svg width="39" height="39" viewBox="0 0 39 39" fill="none" xmlns="http://www.w3.org/2000/svg">
<circle cx="27.625" cy="13" r="6.5" fill="black"/>
<path fill-rule="evenodd" clip-rule="evenodd" d="M31.3719 10.507C31.2255 10.423 31.0559 10.375 30.875 10.375H23.9695C23.5531 10.9539 23.2708 11.6357 23.1681 12.375H30.875C31.3862 12.375 31.8077 11.9915 31.8677 11.4965C31.7429 11.1445 31.5756 10.8126 31.3719 10.507ZM19.1476 12.375C19.198 11.682 19.3314 11.012 19.5381 10.375H8.125C7.57272 10.375 7.125 10.8227 7.125 11.375C7.125 11.9273 7.57272 12.375 8.125 12.375H19.1476ZM21.144 18.5C21.8341 19.3123 22.6742 19.9933 23.6214 20.5H8.125C7.57272 20.5 7.125 20.0523 7.125 19.5C7.125 18.9477 7.57272 18.5 8.125 18.5H21.144ZM8.125 26.625C7.57272 26.625 7.125 27.0727 7.125 27.625C7.125 28.1773 7.57272 28.625 8.125 28.625H30.875C31.4273 28.625 31.875 28.1773 31.875 27.625C31.875 27.0727 31.4273 26.625 30.875 26.625H8.125Z" fill="black"/>
</svg>
