<svg width="333" height="292" viewBox="0 0 333 292" fill="none" xmlns="http://www.w3.org/2000/svg">
<path d="M79.8271 283.053L82.4261 281.554L79.8271 283.053C79.9113 283.199 79.9983 283.343 80.0881 283.484C82.1701 286.791 85.8594 289 90.068 289H243.507C245.772 289 247.896 288.358 249.697 287.244C251.33 286.247 252.743 284.837 253.761 283.07L253.762 283.069L328.24 153.719C328.798 152.814 329.228 151.842 329.523 150.832C329.847 149.731 330.003 148.605 330 147.488C329.995 145.307 329.386 143.16 328.238 141.299L252.161 9.78658C250.267 5.82117 246.219 3.06943 241.519 3.06943H92.1872C88.5574 2.67295 84.8803 3.98714 82.3223 6.70714C81.4906 7.57603 80.7896 8.57319 80.2518 9.66738L5.4482 139.424C2.62639 143.095 2.11896 148.258 4.58017 152.527L79.8271 283.053ZM100.398 259.277L42.4722 158.796L89.8664 76.5849H206.794L265.354 178.166L218.752 259.277H100.398ZM265.71 177.249C265.709 177.253 265.708 177.259 265.706 177.267C265.715 177.228 265.719 177.216 265.71 177.249Z" fill="#FF7200" stroke="white" stroke-width="6"/>
</svg>
