<svg width="346" height="304" viewBox="0 0 173 152" fill="none" xmlns="http://www.w3.org/2000/svg">
<path fill-rule="evenodd" clip-rule="evenodd" d="M1.04547 73.0781C-0.143669 74.5572 -0.370622 76.673 0.635289 78.4153L41.174 148.63C41.2084 148.69 41.2438 148.748 41.2803 148.806C42.1185 150.137 43.6014 151.022 45.291 151.022H127.955C128.868 151.022 129.721 150.764 130.444 150.316C131.1 149.917 131.668 149.352 132.079 148.64L172.217 79.0346C172.447 78.6657 172.624 78.2682 172.745 77.8545C172.875 77.4135 172.937 76.9622 172.936 76.5144C172.934 75.6312 172.685 74.7615 172.217 74.0106L131.184 3.18418C130.433 1.56139 128.79 0.435662 126.884 0.435662L46.3382 0.435662C44.8516 0.247416 43.3355 0.776741 42.2906 1.88943C41.9423 2.25164 41.6511 2.66916 41.4315 3.1275L1.04547 73.0781ZM17.7836 82.5938L49.9226 138.26H115.554L141.55 93.0812C141.388 92.8836 141.567 92.9732 141.435 92.7447L109.11 36.7551H44.2486L17.7836 82.5938Z" fill="#FF7200"/>
</svg>
