<svg width="86" height="157" viewBox="0 0 86 157" fill="none" xmlns="http://www.w3.org/2000/svg">
<path d="M5.29733 2.3178C11.7163 -0.259185 20.5164 -0.344547 24.461 6.35994C28.8943 13.8949 23.6418 23.0704 21.3028 30.3839C20.3435 33.3837 18.3325 37.7579 21.0995 40.4129C23.6949 42.9028 29.0671 41.7815 32.2595 41.5311C39.6213 40.9534 51.8489 41.1526 48.9795 51.9247C46.9915 59.388 40.7309 65.1942 37.6712 72.1866C35.7446 76.5894 34.9094 78.8538 40.3582 78.2124C44.8049 77.689 49.5575 76.6034 53.9941 77.7702C63.1417 80.1759 58.2458 89.6816 55.1042 95.3974C53.8502 97.6787 46.2371 108.261 48.2539 110.442C49.6941 111.999 60.3052 110.466 62.5914 110.885C66.1435 111.535 70.0904 112.988 71.9474 116.252C76.3499 123.991 68.0022 133.531 71.5379 141.876C73.8846 137.115 75.575 132 78.3802 127.477C80.0519 124.782 85.8764 117.662 85.3166 125.511C84.9425 130.757 82.363 136.633 80.7594 141.632C79.62 145.183 78.5749 152.208 75.7182 154.834C72.2629 158.011 66.8235 155.042 63.291 153.547C58.2851 151.43 53.3013 149.415 48.4156 147.007C46.5309 146.077 42.4596 144.853 42.4469 142.369C42.4318 139.374 46.1248 139.19 48.22 139.462C50.7019 139.784 53.1333 140.95 55.4787 141.772C56.6764 142.191 62.1733 144.997 63.3752 144.396C62.9296 144.619 62.0365 136.885 62.0949 136.028C62.3993 131.561 64.4032 127.735 65.2775 123.426C67.2319 113.796 51.9756 118.639 46.5685 117.072C36.8129 114.243 41.9097 104.175 45.4735 98.2653C47.7691 94.4584 50.8921 90.6671 52.2735 86.3807C53.6002 82.264 50.0278 83.4648 46.435 83.8442C40.2566 84.4967 29.8616 87.6734 29.0862 78.1593C28.369 69.3579 36.5896 61.2388 40.4671 54.0582C42.6622 49.9928 43.4477 48.6888 38.3055 48.4098C33.6764 48.1588 29.1082 49.3683 24.4774 49.0017C15.9475 48.3266 11.0485 42.195 12.647 33.8149C13.7636 27.9606 24.028 12.0503 16.6012 7.84385C12.3891 5.45804 7.51689 8.49673 3.28181 7.99142C-2.83942 7.261 2.29536 3.46152 5.29733 2.3178C8.78718 0.916743 4.26871 2.70969 5.29733 2.3178Z" fill="white"/>
</svg>
